<?xml version="1.0" encoding="UTF-8"?>
<svg width="1440px" height="453px" viewBox="0 0 1440 453" version="1.1" xmlns="http://www.w3.org/2000/svg" xmlns:xlink="http://www.w3.org/1999/xlink">
    <!-- Generator: Sketch 49.2 (51160) - http://www.bohemiancoding.com/sketch -->
    <title>specks</title>
    <desc>Created with Sketch.</desc>
    <defs></defs>
    <g id="Page-1" stroke="none" stroke-width="1" fill="none" fill-rule="evenodd">
        <g id="Home" transform="translate(0.000000, -136.000000)">
            <g id="specks" transform="translate(0.000000, 137.000000)">
                <path d="M0,199.94101 C230.58348,93.9375496 441.461333,96.2637176 632.633559,206.919514 C823.805785,317.57531 1092.68633,304.062666 1439.2752,166.381583" id="Path-3" stroke="#FFFFFF" stroke-width="2" opacity="0.5" transform="translate(719.637598, 201.512671) scale(-1, 1) translate(-719.637598, -201.512671) "></path>
                <path d="M1,219.059361 C231.58348,88.16961 442.461333,91.0418895 633.633559,227.6762 C824.805785,364.31051 1093.68633,347.625521 1440.2752,177.621233" id="Path-3" stroke="#FFFFFF" stroke-width="2" opacity="0.795991848"></path>
                <path d="M266.886002,242.052395 L250.860002,244.660395 C250.386002,244.738395 249.999002,244.388395 250.000002,243.885395 L250.049002,226.636395 C250.050002,226.133395 250.441002,225.659395 250.916002,225.583395 L267.027002,223.010395 C267.503002,222.934395 267.891002,223.283395 267.889002,223.786395 L267.752002,240.998395 C267.749002,241.500395 267.360002,241.975395 266.886002,242.052395" id="Fill-1" fill="#FFFFFF"></path>
                <path d="M493.886002,163.052395 L477.860002,165.660395 C477.386002,165.738395 476.999002,165.388395 477.000002,164.885395 L477.049002,147.636395 C477.050002,147.133395 477.441002,146.659395 477.916002,146.583395 L494.027002,144.010395 C494.503002,143.934395 494.891002,144.283395 494.889002,144.786395 L494.752002,161.998395 C494.749002,162.500395 494.360002,162.975395 493.886002,163.052395" id="Fill-1-Copy" fill="#FFFFFF"></path>
                <path d="M699.32718,89.1873154 L688.576892,90.99247 C688.258931,91.0464585 687.99933,90.8042023 688.000001,90.4560456 L688.032871,78.5169693 C688.033541,78.1688125 688.295825,77.8407285 688.614457,77.7881243 L699.421763,76.0071953 C699.741065,75.9545911 700.001336,76.1961551 699.999995,76.5443119 L699.908095,88.4577783 C699.906082,88.8052428 699.64514,89.1340191 699.32718,89.1873154" id="Fill-1" fill="#FFFFFF"></path>
                <path d="M736.999923,306.648049 C736.980136,311.560969 733.159009,316.149223 728.466504,316.896481 C723.773237,317.643739 719.983313,314.265259 720.000055,309.351586 C720.01832,304.43716 723.837925,299.848906 728.533474,299.103155 C733.229785,298.357404 737.01971,301.73513 736.999923,306.648049" id="Fill-1" fill="#FFFFFF"></path>
                <path d="M719.999923,396.648049 C719.980136,401.560969 716.159009,406.149223 711.466504,406.896481 C706.773237,407.643739 702.983313,404.265259 703.000055,399.351586 C703.01832,394.43716 706.837925,389.848906 711.533474,389.103155 C716.229785,388.357404 720.01971,391.73513 719.999923,396.648049" id="Fill-1" fill="#FFFFFF"></path>
                <path d="M494.999923,381.648049 C494.980136,386.560969 491.159009,391.149223 486.466504,391.896481 C481.773237,392.643739 477.983313,389.265259 478.000055,384.351586 C478.01832,379.43716 481.837925,374.848906 486.533474,374.103155 C491.229785,373.357404 495.01971,376.73513 494.999923,381.648049" id="Fill-1-Copy-7" fill="#FFFFFF"></path>
                <path d="M708.999923,134.648049 C708.980136,139.560969 705.159009,144.149223 700.466504,144.896481 C695.773237,145.643739 691.983313,142.265259 692.000055,137.351586 C692.01832,132.43716 695.837925,127.848906 700.533474,127.103155 C705.229785,126.357404 709.01971,129.73513 708.999923,134.648049" id="Fill-1" fill="#FFFFFF"></path>
                <path d="M652.999923,42.072941 C652.980136,47.2588005 649.159009,52.1019575 644.466504,52.8907298 C639.773237,53.679502 635.983313,50.1133291 636.000055,44.9266745 C636.01832,39.7392247 639.837925,34.8960677 644.533474,34.1088858 C649.229785,33.3217038 653.01971,36.8870815 652.999923,42.072941" id="Fill-1" fill="#FFFFFF"></path>
                <path d="M202.999927,152.223158 C202.981305,156.863137 199.38495,161.196488 194.968474,161.902232 C190.551282,162.607975 186.984294,159.417189 187.000052,154.776498 C187.017242,150.135096 190.612165,145.801745 195.031505,145.097424 C199.451562,144.393103 203.01855,147.583178 202.999927,152.223158" id="Fill-1" stroke="#FFFFFF" stroke-width="2"></path>
                <path d="M429.999927,73.2231578 C429.981305,77.8631373 426.38495,82.1964883 421.968474,82.9022319 C417.551282,83.6079755 413.984294,80.4171892 414.000052,75.7764982 C414.017242,71.1350958 417.612165,66.8017448 422.031505,66.0974241 C426.451562,65.3931034 430.01855,68.5831782 429.999927,73.2231578" id="Fill-1-Copy-2" stroke="#FFFFFF" stroke-width="2"></path>
                <path d="M93.9999274,202.223158 C93.9813046,206.863137 90.3849497,211.196488 85.9684742,211.902232 C81.5512823,212.607975 77.9842942,209.417189 78.000052,204.776498 C78.0172423,200.135096 81.6121646,195.801745 86.0315053,195.097424 C90.4515622,194.393103 94.0185502,197.583178 93.9999274,202.223158" id="Fill-1" stroke="#FFFFFF" stroke-width="2"></path>
                <path d="M606.999927,41.2231578 C606.981305,45.8631373 603.38495,50.1964883 598.968474,50.9022319 C594.551282,51.6079755 590.984294,48.4171892 591.000052,43.7764982 C591.017242,39.1350958 594.612165,34.8017448 599.031505,34.0974241 C603.451562,33.3931034 607.01855,36.5831782 606.999927,41.2231578" id="Fill-1" stroke="#FFFFFF" stroke-width="2"></path>
                <path d="M537.999927,99.2231578 C537.981305,103.863137 534.38495,108.196488 529.968474,108.902232 C525.551282,109.607975 521.984294,106.417189 522.000052,101.776498 C522.017242,97.1350958 525.612165,92.8017448 530.031505,92.0974241 C534.451562,91.3931034 538.01855,94.5831782 537.999927,99.2231578" id="Fill-1-Copy-11" stroke="#FFFFFF" stroke-width="2"></path>
                <path d="M727.999927,24.2231578 C727.981305,28.8631373 724.38495,33.1964883 719.968474,33.9022319 C715.551282,34.6079755 711.984294,31.4171892 712.000052,26.7764982 C712.017242,22.1350958 715.612165,17.8017448 720.031505,17.0974241 C724.451562,16.3931034 728.01855,19.5831782 727.999927,24.2231578" id="Fill-1" stroke="#FFFFFF" stroke-width="2"></path>
                <path d="M463.999927,7.22315776 C463.981305,11.8631373 460.38495,16.1964883 455.968474,16.9022319 C451.551282,17.6079755 447.984294,14.4171892 448.000052,9.77649823 C448.017242,5.13509583 451.612165,0.801744812 456.031505,0.0974240922 C460.451562,-0.606896628 464.01855,2.58317823 463.999927,7.22315776" id="Fill-1-Copy-12" stroke="#FFFFFF" stroke-width="2"></path>
                <path d="M660.999927,335.223158 C660.981305,339.863137 657.38495,344.196488 652.968474,344.902232 C648.551282,345.607975 644.984294,342.417189 645.000052,337.776498 C645.017242,333.135096 648.612165,328.801745 653.031505,328.097424 C657.451562,327.393103 661.01855,330.583178 660.999927,335.223158" id="Fill-1" stroke="#FFFFFF" stroke-width="2"></path>
                <path d="M435.999927,320.223158 C435.981305,324.863137 432.38495,329.196488 427.968474,329.902232 C423.551282,330.607975 419.984294,327.417189 420.000052,322.776498 C420.017242,318.135096 423.612165,313.801745 428.031505,313.097424 C432.451562,312.393103 436.01855,315.583178 435.999927,320.223158" id="Fill-1-Copy-8" stroke="#FFFFFF" stroke-width="2"></path>
                <path d="M258.999927,88.2231578 C258.981305,92.8631373 255.38495,97.1964883 250.968474,97.9022319 C246.551282,98.6079755 242.984294,95.4171892 243.000052,90.7764982 C243.017242,86.1350958 246.612165,81.8017448 251.031505,81.0974241 C255.451562,80.3931034 259.01855,83.5831782 258.999927,88.2231578" id="Fill-1" fill="#FFFFFF"></path>
                <path d="M599.999923,210.648049 C599.980136,215.560969 596.159009,220.149223 591.466504,220.896481 C586.773237,221.643739 582.983313,218.265259 583.000055,213.351586 C583.01832,208.43716 586.837925,203.848906 591.533474,203.103155 C596.229785,202.357404 600.01971,205.73513 599.999923,210.648049" id="Fill-1" fill="#FFFFFF"></path>
                <path d="M521.999923,243.648049 C521.980136,248.560969 518.159009,253.149223 513.466504,253.896481 C508.773237,254.643739 504.983313,251.265259 505.000055,246.351586 C505.01832,241.43716 508.837925,236.848906 513.533474,236.103155 C518.229785,235.357404 522.01971,238.73513 521.999923,243.648049" id="Fill-1-Copy-10" fill="#FFFFFF"></path>
                <path d="M176.999923,249.072941 C176.980136,254.2588 173.159009,259.101958 168.466504,259.89073 C163.773237,260.679502 159.983313,257.113329 160.000055,251.926674 C160.01832,246.739225 163.837925,241.896068 168.533474,241.108886 C173.229785,240.321704 177.01971,243.887082 176.999923,249.072941" id="Fill-1" fill="#FFFFFF"></path>
                <path d="M403.999923,170.072941 C403.980136,175.2588 400.159009,180.101958 395.466504,180.89073 C390.773237,181.679502 386.983313,178.113329 387.000055,172.926674 C387.01832,167.739225 390.837925,162.896068 395.533474,162.108886 C400.229785,161.321704 404.01971,164.887082 403.999923,170.072941" id="Fill-1-Copy-3" fill="#FFFFFF"></path>
                <path d="M242.999927,334.223158 C242.981305,338.863137 239.38495,343.196488 234.968474,343.902232 C230.551282,344.607975 226.984294,341.417189 227.000052,336.776498 C227.017242,332.135096 230.612165,327.801745 235.031505,327.097424 C239.451562,326.393103 243.01855,329.583178 242.999927,334.223158" id="Fill-1" fill="#FFFFFF"></path>
                <path d="M203.886,449.0518 L187.86,451.6598 C187.386,451.7378 186.999,451.3878 187,450.8848 L187.049,433.6358 C187.05,433.1328 187.441,432.6588 187.916,432.5828 L204.027,430.0098 C204.503,429.9338 204.891,430.2828 204.889,430.7858 L204.752,447.9978 C204.749,448.4998 204.36,448.9748 203.886,449.0518" id="Fill-1" fill="#FFFFFF"></path>
                <path d="M276.886002,249.052395 L260.860002,251.660395 C260.386002,251.738395 259.999002,251.388395 260.000002,250.885395 L260.049002,233.636395 C260.050002,233.133395 260.441002,232.659395 260.916002,232.583395 L277.027002,230.010395 C277.503002,229.934395 277.891002,230.283395 277.889002,230.786395 L277.752002,247.998395 C277.749002,248.500395 277.360002,248.975395 276.886002,249.052395" id="Fill-1" fill="#FFFFFF"></path>
                <path d="M503.886002,170.052395 L487.860002,172.660395 C487.386002,172.738395 486.999002,172.388395 487.000002,171.885395 L487.049002,154.636395 C487.050002,154.133395 487.441002,153.659395 487.916002,153.583395 L504.027002,151.010395 C504.503002,150.934395 504.891002,151.283395 504.889002,151.786395 L504.752002,168.998395 C504.749002,169.500395 504.360002,169.975395 503.886002,170.052395" id="Fill-1-Copy-4" fill="#FFFFFF"></path>
                <path d="M212.886,48.0518 L196.86,50.6598 C196.386,50.7378 195.999,50.3878 196,49.8848 L196.049,32.6358 C196.05,32.1328 196.441,31.6588 196.916,31.5828 L213.027,29.0098 C213.503,28.9338 213.891,29.2828 213.889,29.7858 L213.752,46.9978 C213.749,47.4998 213.36,47.9748 212.886,48.0518" id="Fill-1" fill="#FFFFFF"></path>
                <path d="M281.271111,386.06647 L269.624966,387.991968 C269.280509,388.049556 268.999275,387.791149 269.000001,387.419782 L269.03561,374.684767 C269.036337,374.3134 269.320478,373.963444 269.665662,373.907333 L281.373576,372.007675 C281.719487,371.951564 282.001448,372.209232 281.999994,372.580599 L281.900436,385.288297 C281.898256,385.658926 281.615568,386.00962 281.271111,386.06647" id="Fill-1" fill="#FFFFFF"></path>
                <path d="M85.2711111,49.0664698 L73.6249661,50.991968 C73.2805088,51.0495557 72.9992747,50.7911492 73.0000014,50.419782 L73.0356099,37.6847672 C73.0363366,37.3134 73.3204775,36.9634437 73.6656615,36.9073325 L85.3735763,35.007675 C85.719487,34.9515639 86.0014478,35.2092321 85.9999944,35.5805993 L85.9004361,48.2882968 C85.898256,48.6589257 85.6155684,49.0096203 85.2711111,49.0664698" id="Fill-1" fill="#FFFFFF"></path>
                <path d="M115.215043,160.945624 L102.67304,162.991466 C102.302086,163.052653 101.999219,162.778096 102.000002,162.383518 L102.038349,148.852565 C102.039132,148.457988 102.34513,148.086159 102.716866,148.026541 L115.32539,146.008155 C115.697909,145.948537 116.001559,146.222309 115.999994,146.616887 L115.892777,160.118815 C115.890429,160.512609 115.585997,160.885222 115.215043,160.945624" id="Fill-1" fill="#FFFFFF"></path>
                <path d="M342.215043,81.9456242 L329.67304,83.991466 C329.302086,84.052653 328.999219,83.778096 329.000002,83.3835184 L329.038349,69.8525652 C329.039132,69.4579875 329.34513,69.0861589 329.716866,69.0265408 L342.32539,67.0081547 C342.697909,66.9485366 343.001559,67.2223091 342.999994,67.6168868 L342.892777,81.1188154 C342.890429,81.5126085 342.585997,81.8852216 342.215043,81.9456242" id="Fill-1-Copy-5" fill="#FFFFFF"></path>
                <path d="M168.215043,90.9456242 L155.67304,92.991466 C155.302086,93.052653 154.999219,92.778096 155.000002,92.3835184 L155.038349,78.8525652 C155.039132,78.4579875 155.34513,78.0861589 155.716866,78.0265408 L168.32539,76.0081547 C168.697909,75.9485366 169.001559,76.2223091 168.999994,76.6168868 L168.892777,90.1188154 C168.890429,90.5126085 168.585997,90.8852216 168.215043,90.9456242" id="Fill-1" fill="#FFFFFF"></path>
                <path d="M598.886002,336.052395 L582.860002,338.660395 C582.386002,338.738395 581.999002,338.388395 582.000002,337.885395 L582.049002,320.636395 C582.050002,320.133395 582.441002,319.659395 582.916002,319.583395 L599.027002,317.010395 C599.503002,316.934395 599.891002,317.283395 599.889002,317.786395 L599.752002,334.998395 C599.749002,335.500395 599.360002,335.975395 598.886002,336.052395" id="Fill-1" fill="#FFFFFF"></path>
                <path d="M373.886002,321.052395 L357.860002,323.660395 C357.386002,323.738395 356.999002,323.388395 357.000002,322.885395 L357.049002,305.636395 C357.050002,305.133395 357.441002,304.659395 357.916002,304.583395 L374.027002,302.010395 C374.503002,301.934395 374.891002,302.283395 374.889002,302.786395 L374.752002,319.998395 C374.749002,320.500395 374.360002,320.975395 373.886002,321.052395" id="Fill-1-Copy-9" fill="#FFFFFF"></path>
                <path d="M669.886002,220.052395 L653.860002,222.660395 C653.386002,222.738395 652.999002,222.388395 653.000002,221.885395 L653.049002,204.636395 C653.050002,204.133395 653.441002,203.659395 653.916002,203.583395 L670.027002,201.010395 C670.503002,200.934395 670.891002,201.283395 670.889002,201.786395 L670.752002,218.998395 C670.749002,219.500395 670.360002,219.975395 669.886002,220.052395" id="Fill-1" fill="#FFFFFF"></path>
                <path d="M385.886002,253.052395 L369.860002,255.660395 C369.386002,255.738395 368.999002,255.388395 369.000002,254.885395 L369.049002,237.636395 C369.050002,237.133395 369.441002,236.659395 369.916002,236.583395 L386.027002,234.010395 C386.503002,233.934395 386.891002,234.283395 386.889002,234.786395 L386.752002,251.998395 C386.749002,252.500395 386.360002,252.975395 385.886002,253.052395" id="Fill-1-Copy-6" fill="#FFFFFF"></path>
                <path d="M625.886,117.0518 L609.86,119.6598 C609.386,119.7378 608.999,119.3878 609,118.8848 L609.049,101.6358 C609.05,101.1328 609.441,100.6588 609.916,100.5828 L626.027,98.0098 C626.503,97.9338 626.891,98.2828 626.889,98.7858 L626.752,115.9978 C626.749,116.4998 626.36,116.9748 625.886,117.0518" id="Fill-1" fill="#FFFFFF"></path>
                <path d="M141.886,355.0518 L125.86,357.6598 C125.386,357.7378 124.999,357.3878 125,356.8848 L125.049,339.6358 C125.05,339.1328 125.441,338.6588 125.916,338.5828 L142.027,336.0098 C142.503,335.9338 142.891,336.2828 142.889,336.7858 L142.752,353.9978 C142.749,354.4998 142.36,354.9748 141.886,355.0518" id="Fill-1" fill="#FFFFFF"></path>
            </g>
        </g>
    </g>
</svg>