<?xml version="1.0" encoding="UTF-8"?>
<svg width="352px" height="535px" viewBox="0 0 352 535" version="1.1" xmlns="http://www.w3.org/2000/svg" xmlns:xlink="http://www.w3.org/1999/xlink">
    <!-- Generator: Sketch 49.1 (51147) - http://www.bohemiancoding.com/sketch -->
    <title>calculator</title>
    <desc>Created with Sketch.</desc>
    <defs>
        <linearGradient x1="50%" y1="0%" x2="50%" y2="100%" id="linearGradient-1">
            <stop stop-color="#34334E" offset="0%"></stop>
            <stop stop-color="#56556F" offset="100%"></stop>
        </linearGradient>
        <filter x="-22.2%" y="-13.0%" width="144.4%" height="126.0%" filterUnits="objectBoundingBox" id="filter-2">
            <feGaussianBlur stdDeviation="19.4614955" in="SourceGraphic"></feGaussianBlur>
        </filter>
        <polygon id="path-3" points="0.00101779766 0.144805104 263.284205 0.144805104 263.284205 448.999792 0.00101779766 448.999792"></polygon>
        <filter x="0.0%" y="0.0%" width="100.0%" height="100.0%" filterUnits="objectBoundingBox" id="filter-4">
            <feGaussianBlur stdDeviation="0" in="SourceGraphic"></feGaussianBlur>
        </filter>
        <linearGradient x1="120.62586%" y1="95.6213539%" x2="50%" y2="66.4917367%" id="linearGradient-6">
            <stop stop-color="#F4EDED" offset="0%"></stop>
            <stop stop-color="#FAFAFA" offset="100%"></stop>
        </linearGradient>
        <linearGradient x1="0.000507968886%" y1="49.9997279%" x2="99.9987048%" y2="49.9997279%" id="linearGradient-7">
            <stop stop-color="#FFB82A" offset="0%"></stop>
            <stop stop-color="#FFEA7F" offset="100%"></stop>
        </linearGradient>
        <linearGradient x1="2440%" y1="15561%" x2="6502%" y2="15561%" id="linearGradient-8">
            <stop stop-color="#FFFFFF" offset="0%"></stop>
            <stop stop-color="#FAFAFA" offset="100%"></stop>
        </linearGradient>
    </defs>
    <g id="Page-1" stroke="none" stroke-width="1" fill="none" fill-rule="evenodd">
        <g id="Home" transform="translate(-252.000000, -142.000000)">
            <g id="calculator" transform="translate(301.000000, 189.000000)">
                <path d="M262.999969,20.8449445 C263.010392,15.4791724 260.414926,11.1273635 256.505049,9.0014798 L243.279638,2.40811412 C242.562497,1.9464639 241.766137,1.55463436 240.915574,1.22949921 L240.818635,1.18052051 C240.839482,1.19302571 240.857202,1.20448881 240.87805,1.21595191 C237.746812,0.0269159923 233.922409,-0.266956162 230.76824,0.23325176 L12.6344215,33.0145864 C6.06028283,34.0556441 0.67130285,40.5447998 0.658794579,47.4341219 L2.56529813e-05,420.397486 C-0.00205905881,421.404154 0.123023649,422.35976 0.336706607,423.266387 L0.00315272067,423.251797 C-0.0051861265,429.528365 2.59236477,434.620064 6.50328409,437.109641 L25.1854288,449 C22.1959521,447.098168 20.1560616,437.171125 19.3649135,429.7941 L233.010347,395.313101 C239.55113,394.258495 244.929687,387.764129 244.964085,380.885228 L246.815309,12.0423271 L262.999969,20.8449445 Z" id="Fill-1" fill="url(#linearGradient-1)" filter="url(#filter-2)"></path>
                <g id="Group-3" transform="translate(0.000000, 2.000000)">
                    <mask id="mask-5" fill="white">
                        <use xlink:href="#path-3"></use>
                    </mask>
                    <g id="Clip-2" filter="url(#filter-4)"></g>
                    <path d="M263.284174,20.983368 C263.294609,15.6193333 260.696348,11.2689335 256.782261,9.14373814 L243.542609,2.55250732 C242.824696,2.09100657 242.027478,1.6993039 241.176,1.37427403 C238.003826,0.172080195 234.175304,-0.121696807 231.017739,0.378349154 L12.6490435,33.1490695 C6.06782609,34.1897902 0.673043478,40.6768448 0.660521739,47.5639361 L0.00104347826,420.406539 C-0.00104347826,421.412881 0.124173913,422.368177 0.338086957,423.27451 C-0.00417391304,429.534461 2.59617391,434.624512 6.51130435,437.113282 L25.2135652,448.999792 C22.2208696,447.098575 20.1787826,437.174746 19.3867826,429.80011 L233.262261,395.330275 C239.810087,394.276012 245.194435,387.783748 245.22887,380.907075 L247.082087,12.1836009 L263.284174,20.983368 Z" id="Fill-1" fill="url(#linearGradient-1)" mask="url(#mask-5)"></path>
                </g>
                <g id="calc" transform="translate(17.000000, 13.000000)" fill-rule="nonzero">
                    <path d="M233.157564,400.863433 L11.8782055,436.85845 C5.33117143,437.896967 -0.0103769796,433.109401 1.51379485e-05,426.161719 L0.675502777,50.2183885 C0.675502777,43.2810917 6.07940389,36.7176611 12.6576143,35.6791437 L235.10089,0.14107519 C241.6791,-0.897442299 247.031041,3.91089367 246.999864,10.8378053 L245.118891,386.324189 C245.077323,393.2511 239.694206,399.804146 233.157564,400.863433 Z" id="Shape" stroke="#DFE6E9" fill="url(#linearGradient-6)"></path>
                    <path d="M168.999786,361.09698 C168.999786,373.378301 159.510976,384.851913 147.916999,386.736567 C136.323022,388.621222 126.958656,380.192052 127.000137,367.900376 C127.041618,355.6087 136.488947,344.135088 148.082924,342.260789 C159.676901,340.38649 169.051637,348.815659 168.999786,361.09698 Z" id="Shape" stroke="#DFE6E9" fill="#FFFFFF"></path>
                    <polygon id="Shape" fill="#000000" points="147 369.352273 149 369 149 371.647727 147 372"></polygon>
                    <path d="M169.999787,193.114338 C169.999787,205.393833 160.511322,216.865739 148.922357,218.73976 C137.333392,220.613781 127.958747,212.165157 128.000137,199.885662 C128.041526,187.606167 137.488601,176.134261 149.087914,174.26024 C160.687226,172.386219 170.051523,180.834843 169.999787,193.114338 Z" id="Shape" stroke="#DFE6E9" fill="#FFFFFF"></path>
                    <path d="M143.271513,202.670169 L144.276985,201.102328 C145.26158,202.012825 146.58221,202.425826 147.886628,202.231173 C150.541073,201.792178 152.340867,198.531069 152.290593,194.39197 C151.485235,196.119142 149.934739,197.342557 148.117886,197.684435 C145.101471,198.186144 142.989981,196.440615 143.000036,193.503527 C143.039936,190.31007 145.285102,187.609938 148.318981,187.106737 C149.695862,186.792589 151.134271,187.180974 152.190046,188.151964 C153.296065,189.197191 154.00995,190.880007 153.999895,194.120211 C153.999895,199.252276 151.476161,203.307757 147.846409,203.913989 C146.220253,204.204578 144.552589,203.751174 143.271513,202.670169 Z M151.958788,191.810259 L151.958788,191.716189 C151.958788,189.625735 150.430471,188.298296 148.228488,188.664126 C146.169134,189.023295 144.6652,190.883428 144.679173,193.054079 L144.679173,193.106341 C144.679173,195.196795 146.137107,196.398806 148.278762,196.032977 C150.31081,195.705467 151.845344,193.944636 151.958788,191.810259 Z" id="Shape" fill="#000000"></path>
                    <path d="M169.999786,249.103602 C169.999786,261.383162 160.514658,272.865482 148.917122,274.739512 C137.319586,276.613543 127.958717,268.175228 128.000137,255.885315 C128.041557,243.595401 137.47491,232.133789 149.082801,230.259758 C160.690692,228.385727 170.051561,236.855103 169.999786,249.103602 Z" id="Shape" stroke="#DFE6E9" fill="#FFFFFF"></path>
                    <path d="M144.843423,258.903283 C143.658438,257.858711 142.989985,256.260517 143.000113,252.949224 L143.000113,252.896996 C143.000113,247.977063 145.319443,243.736102 149.198495,243.088467 C150.744616,242.804612 152.334899,243.210855 153.573824,244.206159 L152.561016,245.783462 C151.606318,244.921518 150.330906,244.539131 149.076959,244.738891 C146.382891,245.188057 144.70163,248.426229 144.711758,252.604516 C145.562509,250.932264 147.127424,249.771116 148.935165,249.470801 C151.679874,249.011189 154.049843,250.515372 153.999203,253.586413 L153.999203,253.638642 C153.926931,256.785433 151.67799,259.426201 148.661707,259.906072 C147.307255,260.19051 145.901018,259.821193 144.843423,258.903283 Z M152.348327,253.98335 C152.348327,251.998664 150.879756,250.76607 148.742732,251.121224 C146.700177,251.429415 145.148007,253.17421 145.025728,255.299511 C145.025728,257.388654 146.575324,258.673477 148.762988,258.307877 C150.834228,257.98595 152.361644,256.143627 152.348327,253.98335 Z" id="Shape" fill="#000000"></path>
                    <path d="M169.999786,304.101487 C169.999786,316.386836 160.518,327.864211 148.922242,329.739125 C137.326484,331.61404 127.958687,323.182105 128.000137,310.896756 C128.041587,298.611406 137.481923,287.071879 149.088044,285.248758 C160.694164,283.425637 170.051599,291.816137 169.999786,304.101487 Z" id="Shape" stroke="#DFE6E9" fill="#FFFFFF"></path>
                    <path d="M143,312.953387 L144.275358,311.602362 C145.349486,312.925146 147.099896,313.560735 148.813508,313.250203 C150.717178,313.015128 152.162447,311.484546 152.225091,309.637235 C152.225091,307.661873 150.43959,306.853306 147.888873,307.252472 L146.889843,307.405998 L146.539119,306.382494 L151.459876,299.975362 L143.871495,301.152391 L143.871495,299.54549 L153.798033,298 L153.798033,299.310085 L148.887904,305.604631 C151.59804,305.410166 154.010593,306.372259 153.999965,309.268774 C153.904846,312.108403 151.702925,314.470762 148.781624,314.867338 C146.63425,315.323245 144.402444,314.584427 143,312.953387 Z" id="Shape" fill="#000000"></path>
                    <path d="M169.999787,140.125562 C169.948089,152.405779 160.50799,163.87836 148.917245,165.742137 C137.326499,167.605914 127.958778,159.167147 128.000136,146.876575 C128.041495,134.586004 137.481594,123.134132 149.082679,121.260001 C160.683764,119.38587 170.051485,127.845345 169.999787,140.125562 Z" id="Shape" stroke="#DFE6E9" fill="#FFFFFF"></path>
                    <path d="M141.00006,141.264453 C141.00006,139.090441 142.430687,136.957642 144.545069,136.627934 C146.659452,136.298226 147.995405,137.977676 147.984886,140.120778 C147.984886,142.284488 146.554259,144.42759 144.460915,144.757298 C142.367571,145.087006 140.98954,143.438466 141.00006,141.264453 Z M146.53322,140.39897 L146.53322,140.347453 C146.53322,138.750429 145.618039,137.689181 144.492473,137.864339 C143.366906,138.039496 142.483283,139.440756 142.472764,140.955352 C142.472764,142.552376 143.366906,143.623927 144.513511,143.438466 C145.660117,143.253005 146.522701,141.95478 146.53322,140.42988 L146.53322,140.39897 Z M153.896741,135.247281 L155.464119,135 L144.103258,152.742416 L142.525361,153 L153.896741,135.247281 Z M150.046671,147.961649 C150.046671,145.797939 151.466779,143.66514 153.560123,143.335432 C155.653467,143.005724 157.010459,144.685175 156.999939,146.828277 C156.999939,148.991986 155.60087,151.135089 153.486488,151.464797 C151.372105,151.794505 150.057191,150.176875 150.06771,148.033772 L150.046671,147.961649 Z M155.548274,147.096165 C155.548274,145.499141 154.654132,144.437894 153.518046,144.613051 C152.38196,144.788208 151.508856,146.189468 151.498337,147.704064 C151.498337,149.301088 152.392479,150.372639 153.539084,150.187178 C154.68569,150.001717 155.569312,148.693188 155.569312,147.168288 L155.548274,147.096165 Z" id="Shape" fill="#000000"></path>
                    <path d="M220.999456,185.112318 C220.937373,197.398697 211.490389,208.877034 199.901536,210.741746 C188.312684,212.606458 178.948477,204.173816 179.000213,191.887437 C179.051949,179.601058 188.488586,168.122721 200.098133,166.258009 C211.70768,164.393297 221.082234,172.836298 220.999456,185.112318 Z" id="Shape" stroke="#FFFFFF" fill="url(#linearGradient-7)"></path>
                    <polygon id="Shape" fill="#FFFFFF" points="199.978678 191.141831 196.076759 196 195.010661 194.987433 198.955224 190.193896 195 186.692998 196.172708 185.260323 200.031983 188.847397 203.933902 184 205 185.001795 201.034115 189.795332 204.957356 193.307002 203.795309 194.728905"></polygon>
                    <path d="M220.999787,132.112425 C220.937749,144.398873 211.497668,155.877275 199.896604,157.741998 C188.29554,159.60672 178.948515,151.163672 179.000213,138.877224 C179.051912,126.590775 188.491993,115.122733 200.093057,113.258011 C211.694121,111.393288 221.051485,119.836337 220.999787,132.112425 Z" id="Shape" stroke="#FFFFFF" fill="url(#linearGradient-7)"></path>
                    <path d="M195,138.706037 L195,137.07874 L206,135.356955 L206,137.005249 L195,138.706037 Z M199.376459,131.356955 L201.634241,131 L201.634241,133.414698 L199.376459,133.771654 L199.376459,131.356955 Z M199.376459,140.606299 L201.634241,140.249344 L201.634241,142.643045 L199.376459,143 L199.376459,140.606299 Z" id="Shape" fill="#FFFFFF"></path>
                    <path d="M220.999786,241.108419 C220.937672,253.390601 211.496309,264.865017 199.901652,266.739448 C188.306996,268.613879 178.948452,260.173762 179.000214,247.891581 C179.051976,235.609399 188.503691,224.134983 200.098348,222.260552 C211.693004,220.386121 221.051548,228.826238 220.999786,241.108419 Z" id="Shape" stroke="#FFFFFF" fill="url(#linearGradient-7)"></path>
                    <polygon id="Shape" fill="#FFFFFF" points="194 247 194 245.504559 205 244 205 245.495441"></polygon>
                    <path d="M219.999692,296.102498 C219.999692,308.377009 210.49722,319.864295 198.901509,321.739136 C187.305798,323.613977 177.948401,315.182371 178.000214,302.897502 C178.052027,290.612632 187.502687,279.135705 199.098398,277.260864 C210.694108,275.386023 220.061868,283.817629 219.999692,296.102498 Z" id="Shape" stroke="#FFFFFF" fill="url(#linearGradient-7)"></path>
                    <polygon id="Shape" fill="#FFFFFF" points="198.654261 301.42753 194 302.129444 194 300.535096 198.654261 299.833181 198.654261 295.260711 200.345739 295 200.345739 299.57247 205 298.870556 205 300.474932 200.334966 301.176846 200.334966 305.749316 198.643487 306"></polygon>
                    <path d="M219.999786,353.091019 C219.937564,365.375162 210.490253,376.85141 198.896297,378.736498 C187.302342,380.621586 177.948363,372.190479 178.000215,359.906336 C178.052066,347.622193 187.499377,336.135588 199.093332,334.260857 C210.687288,332.386127 220.051637,340.817234 219.999786,353.091019 Z" id="Shape" stroke="#FFFFFF" fill="url(#linearGradient-7)"></path>
                    <path d="M194.061412,354.692857 L204,353 L204,354.757143 L194.071648,356.45 L194.061412,354.692857 Z M194.061412,360.242857 L204,358.55 L204,360.275 L194,362 L194.061412,360.242857 Z" id="Shape" fill="#FFFFFF"></path>
                    <path d="M65.9999231,210.091617 C65.9999231,222.387327 56.5424463,233.864705 44.9534156,235.739619 C33.3643849,237.614534 23.9793395,229.16188 24.0000342,216.897246 C24.0207289,204.632611 33.457511,193.072365 45.0568891,191.249243 C56.6562671,189.426122 66.0309652,197.795906 65.9999231,210.091617 Z" id="Shape" stroke="#DFE6E9" fill="#FFFFFF"></path>
                    <polygon id="Shape" fill="#000000" points="48.1086519 206.023669 40 207.397633 40 205.704142 50 204 50 205.395266 43.2293763 221.63787 41.4185111 222"></polygon>
                    <path d="M65.9999231,266.110005 C65.9999231,278.396591 56.5458157,289.917207 44.948225,291.749326 C33.3506344,293.581446 23.969012,285.176468 24.0000769,272.889882 C24.0311419,260.603295 33.4541843,249.134435 45.051775,247.260911 C56.6493656,245.387388 66.030988,253.802716 65.9999231,266.110005 Z" id="Shape" stroke="#DFE6E9" fill="#FFFFFF"></path>
                    <path d="M47.1097257,271.332494 L39.4089776,272.581864 L39,271.332494 L47.2793017,259.241814 L48.7256858,259 L48.7256858,269.559194 L51,269.186398 L51,270.657431 L48.7256858,271.030227 L48.7256858,274.738035 L47.1396509,275 L47.1097257,271.332494 Z M47.1097257,269.861461 L47.1097257,261.801008 L40.9650873,270.869018 L47.1097257,269.861461 Z" id="Shape" fill="#000000"></path>
                    <path d="M65.9997877,157.124078 C65.9997877,169.405807 56.5389961,180.941933 44.9482339,182.754161 C33.3574717,184.566389 23.9690577,176.168006 24.0000766,163.875922 C24.0310956,151.583838 33.4505286,140.058067 45.0516305,138.245839 C56.6527324,136.433611 66.0514861,144.831994 65.9997877,157.124078 Z" id="Shape" stroke="#DFE6E9" fill="url(#linearGradient-8)"></path>
                    <path d="M38.0000254,160.792709 C38.0000254,156.199315 41.301005,151.877967 45.8862886,151.155999 C48.0488775,150.68738 50.307357,151.288898 51.9363155,152.767349 L50.7369242,154.305456 C49.4360293,153.083892 47.6238793,152.544086 45.8544463,152.851055 C42.4154837,153.395147 39.8256476,156.722481 39.8150335,160.457883 C39.8150335,164.214212 42.4048696,166.73587 45.8226041,166.202241 C47.8463361,165.831691 49.6478325,164.7077 50.8536791,163.063248 L52,164.057262 C50.5256085,166.104976 48.2826526,167.487382 45.7695337,167.897298 C41.301005,168.619266 37.9894114,165.459346 38.0000254,160.792709 Z" id="Shape" fill="#000000"></path>
                    <path d="M65.999923,321.10364 C65.999923,333.382205 56.5388942,344.91536 44.9431754,346.747827 C33.3474567,348.580294 23.9278781,340.235839 24.0004162,327.895156 C24.0729542,315.554474 33.4510824,304.083436 45.0468012,302.250969 C56.6425199,300.418502 66.0310107,308.814722 65.999923,321.10364 Z" id="Shape" stroke="#DFE6E9" fill="#FFFFFF"></path>
                    <polygon id="Shape" fill="#000000" points="45.2985386 317.095718 42.4175365 318.465995 42 317.095718 45.736952 315.201511 47 315 47 330.738035 45.2985386 331"></polygon>
                    <path d="M104.585055,393.596926 L41.3210805,403.786942 C31.7700326,405.325253 23.9792106,398.366721 24.0000417,388.300596 L24.0000417,380.443856 C24.0000417,370.39838 31.8533569,360.93106 41.4044048,359.392749 L104.699626,349.213058 C114.250674,347.674747 122.041496,354.633279 121.999834,364.699404 L121.999834,372.556144 C121.968587,382.580972 114.125687,392.058616 104.585055,393.596926 Z" id="Shape" stroke="#DFE6E9" fill="#FFFFFF"></path>
                    <path d="M37.0000329,382.523015 C37.0000329,377.965055 39.5915919,373.680152 43.5526738,373.071023 C47.5137558,372.461895 50.0105016,375.843608 49.9999668,380.422572 L49.9999668,380.475083 C49.9999668,385.033044 47.4294774,389.307444 43.4683955,389.927075 C39.5073135,390.546705 36.9894981,387.143989 37.0000329,382.523015 Z M48.1985173,380.716634 L48.1985173,380.664123 C48.1985173,377.103873 46.3654634,374.215765 43.4999999,374.677862 C40.6345363,375.139959 38.8120172,378.553178 38.8014824,382.144935 C38.8014824,385.705185 40.6345363,388.593294 43.5105347,388.131197 C46.386533,387.669099 48.1879825,384.276884 48.1985173,380.716634 Z" id="Shape" fill="#000000"></path>
                    <path d="M117.999863,202.11754 C117.999863,214.395504 108.514756,225.86598 96.9172457,227.739767 C85.319735,229.613554 75.9381773,221.165984 76.0003068,208.919077 C76.0624363,196.67217 85.4439941,185.108522 97.0518597,183.25544 C108.659725,181.402358 118.041283,189.829223 117.999863,202.11754 Z" id="Shape" stroke="#DFE6E9" fill="#FFFFFF"></path>
                    <path d="M91,209.1332 C91.1304996,207.153692 92.2857155,205.410613 94.0054645,204.598323 C92.5254712,204.253325 91.4793154,202.861291 91.5009107,201.265716 C91.5009107,198.734622 93.8351548,196.551553 96.5100182,196.087519 C99.1848816,195.623485 101.519126,197.036679 101.519126,199.567773 C101.43351,201.341019 100.476955,202.939384 98.9945355,203.786263 C100.727687,204.218659 102,205.326012 102,207.266518 L102,207.319249 C102,210.092906 99.5956284,212.370891 96.4699454,212.898202 C93.3442623,213.425513 91,211.864672 91,209.1332 Z M100.346995,207.498535 C100.346995,205.674038 98.6639344,204.682693 96.5200364,205.041264 C94.3761384,205.399836 92.6830601,206.971224 92.6830601,208.79572 C92.6830601,210.451478 94.0956284,211.611563 96.5100182,211.20026 C98.924408,210.788957 100.346995,209.164838 100.346995,207.498535 Z M99.8961749,199.926345 L99.8961749,199.873614 C99.8961749,198.260041 98.4535519,197.300335 96.5500911,197.616722 C94.6466302,197.933108 93.1939891,199.377941 93.1839709,201.012606 C93.1839709,202.794918 94.6666667,203.754625 96.5300546,203.438238 C98.3039457,203.262121 99.7129728,201.792074 99.8961749,199.926345 Z" id="Shape" fill="#000000"></path>
                    <path d="M117.999863,257.097887 C117.999863,269.390509 108.525059,280.865003 96.9378401,282.739446 C85.350621,284.61389 75.969012,276.173716 76.0000769,263.891451 C76.0311419,251.609185 85.4645258,240.072555 97.0724548,238.249891 C108.680384,236.427228 118.041283,244.763841 117.999863,257.097887 Z" id="Shape" stroke="#DFE6E9" fill="#FFFFFF"></path>
                    <path d="M91,266.263966 L92.1517605,264.798051 C93.2948212,265.90267 94.8901533,266.448698 96.494637,266.284468 C98.6163588,266.005309 100.207525,264.261057 100.235217,262.184007 L100.235217,262.132751 C100.235217,260.16453 98.660792,259.057406 96.4101041,259.405945 C95.2214137,259.609276 94.103223,260.095326 93.1555884,260.820604 L91.9932613,260.205535 L92.4581921,252.394157 L101.355277,251 L101.355277,252.660687 L93.9586507,253.819067 L93.6099526,258.944643 C94.5281717,258.340362 95.5696533,257.934808 96.6637028,257.755509 C99.6751865,257.283956 102.010407,258.780625 101.999841,261.784212 C102.022327,264.884586 99.6626852,267.516503 96.494637,267.924652 C94.496855,268.226144 92.4677934,267.612885 91,266.263966 Z" id="Shape" fill="#000000"></path>
                    <path d="M117.999864,149.118885 C117.999864,161.396344 108.528715,172.866348 96.9379321,174.740058 C85.3471489,176.613768 75.9690577,168.156193 76.0000767,155.878734 C76.0310958,143.601275 85.4712251,132.120919 97.0723479,130.257561 C108.673471,128.394203 118.041222,136.841426 117.999864,149.118885 Z" id="Shape" stroke="#DFE6E9" fill="#FFFFFF"></path>
                    <path d="M116.999863,313.093147 C116.999863,325.381969 107.528409,336.852918 95.932613,338.737135 C84.3368171,340.621352 74.9689892,332.173433 75.0000772,319.894963 C75.0311651,307.616494 84.4715315,296.083428 96.0673273,294.250975 C107.663123,292.418522 117.041314,300.814677 116.999863,313.093147 Z" id="Shape" stroke="#DFE6E9" fill="#FFFFFF"></path>
                    <path d="M91,322.682578 L96.7255859,316.718433 C99.1318359,314.175501 100.012695,312.817228 100.012695,311.234279 C100.074103,310.457864 99.740545,309.700475 99.115586,309.197269 C98.490627,308.694063 97.6499207,308.505954 96.8544922,308.691347 C95.0605469,308.967087 93.8896484,310.100683 92.6328125,312.051285 L91.3544922,311.305767 C92.7724609,308.956874 94.2548828,307.486263 97.0263672,307.067547 C99.7978516,306.648832 101.881836,308.211356 101.881836,310.795138 C101.881836,313.10318 100.646484,314.716767 97.8857422,317.555864 L93.6748047,321.957485 L102,320.680912 L102,322.304712 L91.0214844,324 L91,322.682578 Z" id="Shape" fill="#000000"></path>
                    <polygon id="Shape" fill="#000000" points="101.426483 145.24714 103 145 91.5946385 162.75286 90 163"></polygon>
                    <polygon id="Shape" fill="#000000" points="90.8116438 149.842217 87 150.471215 87 149.021322 90.8116438 148.381663 90.8116438 144.223881 92.1883562 144 92.1883562 148.157783 96 147.518124 96 148.978678 92.1883562 149.607676 92.1883562 153.776119 90.8013699 154"></polygon>
                    <polygon id="Shape" fill="#000000" points="98 158 98 156.505226 107 155 107 156.494774"></polygon>
                    <path d="M220.164259,87.421129 L30.5687459,116.921114 C28.8727315,117.204103 27.1366193,116.717047 25.8578943,115.599513 C24.5791693,114.481978 23.8989633,112.857307 24.0121903,111.19105 L24.1082962,67.2881926 C24.1560884,63.5195437 26.8951217,60.2888161 30.6968871,59.5168584 L220.441898,30.0790445 C222.135065,29.7959661 223.868511,30.2818884 225.145265,31.3974992 C226.422019,32.5131101 227.101084,34.135209 226.987776,35.7987465 L226.774207,79.6601566 C226.711304,83.4283581 223.966257,86.6514143 220.164259,87.421129 Z" id="Shape" stroke="#DFE6E9" fill="#FFFFFF"></path>
                </g>
            </g>
        </g>
    </g>
</svg>