<?xml version="1.0" encoding="UTF-8"?>
<svg width="164px" height="33px" viewBox="0 0 164 33" version="1.1" xmlns="http://www.w3.org/2000/svg" xmlns:xlink="http://www.w3.org/1999/xlink">
    <!-- Generator: Sketch 49.3 (51167) - http://www.bohemiancoding.com/sketch -->
    <title>logo-2</title>
    <desc>Created with Sketch.</desc>
    <defs>
        <linearGradient x1="0%" y1="50.0198177%" x2="99.9601594%" y2="50.0198177%" id="linearGradient-1">
            <stop stop-color="#29EDC6" offset="0%"></stop>
            <stop stop-color="#23DDC8" offset="24%"></stop>
            <stop stop-color="#12B4CE" offset="70%"></stop>
            <stop stop-color="#0696D2" offset="100%"></stop>
        </linearGradient>
        <linearGradient x1="0%" y1="50.0198177%" x2="100%" y2="50.0198177%" id="linearGradient-2">
            <stop stop-color="#FFB82A" offset="0%"></stop>
            <stop stop-color="#FFEA7F" offset="100%"></stop>
        </linearGradient>
    </defs>
    <g id="Symbols" stroke="none" stroke-width="1" fill="none" fill-rule="evenodd">
        <g id="header" transform="translate(-13.000000, -11.000000)" fill-rule="nonzero">
            <g id="logo-2" transform="translate(13.000000, 11.000000)">
                <rect id="Rectangle-path" fill="url(#linearGradient-1)" opacity="0.8" x="15.59" y="7.72" width="25.1" height="25.23" rx="12.55"></rect>
                <path d="M30.62,16.4 C30.7146563,16.3061167 30.7678992,16.1783188 30.7678992,16.045 C30.7678992,15.9116812 30.7146563,15.7838833 30.62,15.69 C30.4221863,15.4982167 30.1078137,15.4982167 29.91,15.69 L25.65,20 C25.5553437,20.0938833 25.5021008,20.2216812 25.5021008,20.355 C25.5021008,20.4883188 25.5553437,20.6161167 25.65,20.71 L29.91,25 C30.0053883,25.0957197 30.1348664,25.149669 30.27,25.15 C30.4021181,25.1492306 30.5283269,25.0951411 30.62,25 C30.7146563,24.9061167 30.7678992,24.7783188 30.7678992,24.645 C30.7678992,24.5116812 30.7146563,24.3838833 30.62,24.29 L27.2,20.83 L40.66,20.83 C40.66,20.69 40.66,20.55 40.66,20.4 L40.66,20.27 C40.66,20.12 40.66,19.98 40.66,19.83 L27.2,19.83 L30.62,16.4 Z" id="Shape" fill="#FFFFFF"></path>
                <rect id="Rectangle-path" fill="url(#linearGradient-2)" opacity="0.8" x="0" y="0" width="25.23" height="25.23" rx="12.615"></rect>
                <path d="M53.71,27.06 C53.5732482,27.2805968 53.4122469,27.4852026 53.23,27.67 C53.0421232,27.8696983 52.8265994,28.0414438 52.59,28.18 C52.3350588,28.3288184 52.0630936,28.4463343 51.78,28.53 C51.4540881,28.6184 51.1176812,28.6621329 50.78,28.66 C50.2252599,28.6624617 49.6763776,28.5465487 49.17,28.32 C48.6798137,28.1084633 48.2426487,27.7908357 47.89,27.39 C47.5355404,26.9813337 47.2607992,26.5098642 47.08,26 C46.8744072,25.425906 46.7728176,24.8197547 46.78,24.21 C46.7731639,23.5994096 46.878231,22.9927314 47.09,22.42 C47.2764022,21.8972045 47.5615779,21.4151218 47.93,21 C48.2920677,20.6096421 48.7268684,20.2937322 49.21,20.07 C49.7138689,19.847694 50.2592906,19.7352007 50.81,19.74 C51.093077,19.7381303 51.3752735,19.7717252 51.65,19.84 C51.9167095,19.8982886 52.1752938,19.9889611 52.42,20.11 C52.6523894,20.2240222 52.8705558,20.3649913 53.07,20.53 C53.2597354,20.6918058 53.4248122,20.880465 53.56,21.09 L52.91,21.62 C52.8167247,21.4733901 52.7095647,21.3360913 52.59,21.21 C52.4424322,21.0742613 52.2816281,20.9536583 52.11,20.85 C51.9214158,20.7487503 51.7239169,20.6650643 51.52,20.6 C51.2917699,20.5386865 51.0563171,20.508414 50.82,20.51 C50.3527774,20.5035001 49.8904958,20.6062294 49.47,20.81 C49.0829719,21.0015833 48.7418679,21.2744665 48.47,21.61 C48.1920555,21.9631028 47.9787691,22.3625917 47.84,22.79 C47.6909493,23.2450223 47.6166522,23.7211992 47.62,24.2 C47.6182522,24.6794783 47.6959716,25.155932 47.85,25.61 C47.9846573,26.0391452 48.1983246,26.4393475 48.48,26.79 C48.7544462,27.1255319 49.0947916,27.4012117 49.48,27.6 C49.8974654,27.8022549 50.3561466,27.9049447 50.82,27.9 C51.2610963,27.9017997 51.6963338,27.7989877 52.09,27.6 C52.5133241,27.3707871 52.8607871,27.0233241 53.09,26.6 L53.71,27.06 Z" id="Shape" fill="#FFFFFF"></path>
                <path d="M56.62,28.44 L55.76,28.44 L59.1,19.94 L59.86,19.94 L63.18,28.44 L62.31,28.44 L61.46,26.21 L57.46,26.21 L56.62,28.44 Z M57.76,25.44 L61.16,25.44 L59.46,20.92 L57.76,25.44 Z" id="Shape" fill="#FFFFFF"></path>
                <polygon id="Shape" fill="#FFFFFF" points="66.85 27.67 70.46 27.67 70.46 28.44 66.07 28.44 66.07 19.94 66.85 19.94"></polygon>
                <path d="M79.56,27.06 C79.4267977,27.2803791 79.2691319,27.4850093 79.09,27.67 C78.9005666,27.8721063 78.6813719,28.0440898 78.44,28.18 C78.1894857,28.3305677 77.920602,28.4482043 77.64,28.53 C77.3140881,28.6184 76.9776812,28.6621329 76.64,28.66 C76.0822003,28.6608609 75.5303867,28.5450482 75.02,28.32 C74.5343856,28.1055034 74.101087,27.788206 73.75,27.39 C73.3955404,26.9813337 73.1207992,26.5098642 72.94,26 C72.7344072,25.425906 72.6328176,24.8197547 72.64,24.21 C72.6466536,23.5895557 72.7687326,22.9757697 73,22.4 C73.1736406,21.8881143 73.4415906,21.4132662 73.79,21 C74.1520677,20.6096421 74.5868684,20.2937322 75.07,20.07 C75.5735854,19.8468086 76.1192006,19.7342754 76.67,19.74 C76.9530478,19.7386478 77.2351804,19.7722351 77.51,19.84 C77.7735044,19.8982935 78.0287789,19.9889832 78.27,20.11 C78.5055146,20.2239827 78.7269977,20.3649265 78.93,20.53 C79.1197354,20.6918058 79.2848122,20.880465 79.42,21.09 L78.77,21.62 C78.6761955,21.4710529 78.5654579,21.3334699 78.44,21.21 C78.2979618,21.07202 78.1402154,20.951193 77.97,20.85 C77.7787993,20.7469465 77.5778066,20.6631995 77.37,20.6 C77.1453201,20.5379813 76.9130709,20.5076879 76.68,20.51 C76.2127774,20.5035001 75.7504958,20.6062294 75.33,20.81 C74.9429719,21.0015833 74.6018679,21.2744665 74.33,21.61 C74.0483246,21.9606525 73.8346573,22.3608548 73.7,22.79 C73.5509493,23.2450223 73.4766522,23.7211992 73.48,24.2 C73.47503,24.6789195 73.549368,25.1553588 73.7,25.61 C73.8422021,26.0379435 74.0588626,26.4374113 74.34,26.79 C74.6144462,27.1255319 74.9547916,27.4012117 75.34,27.6 C75.7574654,27.8022549 76.2161466,27.9049447 76.68,27.9 C77.1209664,27.9006712 77.555945,27.7979203 77.95,27.6 C78.3733241,27.3707871 78.7207871,27.0233241 78.95,26.6 L79.56,27.06 Z" id="Shape" fill="#FFFFFF"></path>
                <path d="M85.51,28.66 C85.0124712,28.6790976 84.5188483,28.5651846 84.08,28.33 C83.7250485,28.1226237 83.4236526,27.8349275 83.2,27.49 C82.9781445,27.1570118 82.8251426,26.7830072 82.75,26.39 C82.6645766,26.0227624 82.620966,25.6470407 82.62,25.27 L82.62,19.94 L83.41,19.94 L83.41,25.18 C83.4064681,25.5165366 83.4433997,25.8522779 83.52,26.18 C83.584944,26.4850926 83.703443,26.7762615 83.87,27.04 C84.0324261,27.294341 84.2558688,27.5040333 84.52,27.65 C85.4346148,28.1567543 86.5852115,27.8734634 87.16,27 C87.326557,26.7362615 87.445056,26.4450926 87.51,26.14 C87.5866003,25.8122779 87.6235319,25.4765366 87.62,25.14 L87.62,19.94 L88.41,19.94 L88.41,25.27 C88.409034,25.6470407 88.3654234,26.0227624 88.28,26.39 C88.2048574,26.7830072 88.0518555,27.1570118 87.83,27.49 C87.6026517,27.8353667 87.2979208,28.122978 86.94,28.33 C86.5011517,28.5651846 86.0075288,28.6790976 85.51,28.66 Z" id="Shape" fill="#FFFFFF"></path>
                <polygon id="Shape" fill="#FFFFFF" points="93 27.67 96.61 27.67 96.61 28.44 92.21 28.44 92.21 19.94 93 19.94"></polygon>
                <path d="M99.43,28.44 L98.56,28.44 L101.91,19.94 L102.67,19.94 L105.99,28.44 L105.12,28.44 L104.26,26.21 L100.26,26.21 L99.43,28.44 Z M100.56,25.44 L104,25.44 L102.3,20.92 L100.56,25.44 Z" id="Shape" fill="#FFFFFF"></path>
                <polygon id="Shape" fill="#FFFFFF" points="110.7 28.44 109.91 28.44 109.91 20.71 107.32 20.71 107.32 19.94 113.32 19.94 113.32 20.71 110.7 20.71"></polygon>
                <path d="M123.51,24.19 C123.516373,24.8070678 123.411357,25.4202229 123.2,26 C123.009004,26.5198219 122.720504,26.9983919 122.35,27.41 C121.997025,27.8061334 121.564208,28.1230778 121.08,28.34 C120.576509,28.5645843 120.031308,28.6804395 119.48,28.68 C118.928502,28.6822692 118.38292,28.5663331 117.88,28.34 C117.391268,28.1259182 116.95462,27.8086658 116.6,27.41 C116.233102,26.9957314 115.945033,26.5178756 115.75,26 C115.349987,24.8401884 115.349987,23.5798116 115.75,22.42 C115.94394,21.8985866 116.232059,21.4172578 116.6,21 C116.96049,20.6078674 117.395668,20.2916832 117.88,20.07 C118.383585,19.8468086 118.929201,19.7342754 119.48,19.74 C120.030591,19.7364115 120.575761,19.8488529 121.08,20.07 C121.560753,20.2928215 121.992444,20.6089415 122.35,21 C122.720504,21.4116081 123.009004,21.8901781 123.2,22.41 C123.407014,22.9805375 123.511949,23.58307 123.51,24.19 Z M122.68,24.19 C122.679974,23.7114549 122.60576,23.2358064 122.46,22.78 C122.321941,22.3472327 122.104951,21.9437664 121.82,21.59 C121.546823,21.2557866 121.206028,20.9831503 120.82,20.79 C119.974956,20.3899468 118.995044,20.3899468 118.15,20.79 C117.763972,20.9831503 117.423177,21.2557866 117.15,21.59 C116.865049,21.9437664 116.648059,22.3472327 116.51,22.78 C116.367473,23.2363047 116.29663,23.7119659 116.3,24.19 C116.298211,24.6679213 116.369019,25.1433423 116.51,25.6 C116.648118,26.0297014 116.865161,26.429876 117.15,26.78 C117.423177,27.1142134 117.763972,27.3868497 118.15,27.58 C118.995044,27.9800532 119.974956,27.9800532 120.82,27.58 C121.206028,27.3868497 121.546823,27.1142134 121.82,26.78 C122.104839,26.429876 122.321882,26.0297014 122.46,25.6 C122.603373,25.1470647 122.677542,24.6750791 122.68,24.2 L122.68,24.19 Z" id="Shape" fill="#FFFFFF"></path>
                <path d="M127.68,28.44 L126.89,28.44 L126.89,19.94 L129.16,19.94 C129.516857,19.9375437 129.872724,19.9778305 130.22,20.06 C130.523365,20.1322242 130.809057,20.2648666 131.06,20.45 C131.298577,20.6381876 131.487415,20.8819602 131.61,21.16 C131.74726,21.4925122 131.812034,21.8504726 131.8,22.21 C131.804088,22.5002605 131.753192,22.7886714 131.65,23.06 C131.555636,23.3066156 131.41665,23.5337387 131.24,23.73 C131.061314,23.9196022 130.847305,24.0724658 130.61,24.18 C130.361997,24.2906383 130.099265,24.3647422 129.83,24.4 L132.09,28.4 L131.09,28.4 L128.95,24.4 L127.64,24.4 L127.68,28.44 Z M127.68,23.72 L129,23.72 C129.513508,23.7537147 130.024528,23.6242095 130.46,23.35 C130.814136,23.0817239 131.00956,22.6532954 130.98,22.21 C130.984831,21.9660284 130.937083,21.7238759 130.84,21.5 C130.745989,21.3164665 130.608701,21.1585854 130.44,21.04 C130.255265,20.9127792 130.04838,20.8212069 129.83,20.77 C129.566759,20.7161241 129.298697,20.6893179 129.03,20.69 L127.64,20.6899873 L127.68,23.72 Z" id="Shape" fill="#FFFFFF"></path>
                <path d="M55.36,12.1 C55.759442,12.6200709 55.9614216,13.2649883 55.93,13.92 C56.0338733,14.8765847 55.6598204,15.8229386 54.93,16.45 C54.1956951,16.9720584 53.3105034,17.2390209 52.41,17.21 L48.27,17.21 C48.0641271,17.2155672 47.8650232,17.1362315 47.7193958,16.9906042 C47.5737685,16.8449768 47.4944328,16.6458729 47.5,16.44 L47.5,6.78 C47.4951403,6.57725508 47.5748409,6.38162616 47.72,6.24 C47.8619458,6.08694653 48.0612562,5.9999747 48.27,6 L52.38,6 C53.1824284,5.94215805 53.975639,6.20057958 54.59,6.72 C55.1257909,7.27484015 55.401874,8.03043612 55.35,8.8 C55.3629461,9.28348781 55.2418067,9.76112341 55,10.18 C54.7431149,10.5865566 54.3704705,10.9069612 53.93,11.1 C54.4903428,11.2939502 54.9855378,11.6402404 55.36,12.1 Z M53.3,7.91 C52.9833611,7.63297321 52.569834,7.49273357 52.15,7.52 L49.15,7.52 L49.15,10.64 L52.21,10.64 C52.6107995,10.6352118 52.9955932,10.4820069 53.29,10.21 C53.5960755,9.90422308 53.7562876,9.48184567 53.73,9.05 C53.7531415,8.62647238 53.5970848,8.21274051 53.3,7.91 Z M53.77,15.28 C54.1421964,14.9294359 54.3368418,14.4299687 54.3,13.92 C54.3,12.73 53.63,12.14 52.3,12.14 L49.13,12.14 L49.13,15.74 L52.36,15.74 C52.8715847,15.7730429 53.376325,15.6083758 53.77,15.28 Z" id="Shape" fill="#FFFFFF"></path>
                <path d="M64.79,8.93 C64.9322182,9.08500068 65.0076631,9.28977989 65,9.5 L65,16.44 C65.005617,16.6439124 64.93009,16.8417211 64.79,16.99 C64.6422178,17.1382746 64.4391898,17.2180356 64.23,17.21 C64.0287381,17.2174879 63.8333246,17.1414937 63.69,17 C63.5483727,16.8486513 63.4728114,16.6471546 63.48,16.44 L63.48,16 C63.178662,16.3967543 62.7926229,16.7213005 62.35,16.95 C61.8713501,17.2098368 61.3346143,17.3440208 60.79,17.34 C60.082491,17.3562737 59.386186,17.1613083 58.79,16.78 C58.1889442,16.4013452 57.7071032,15.8605741 57.4,15.22 C57.0672616,14.5281757 56.9027889,13.7674891 56.92,13 C56.9073705,12.2231828 57.0823188,11.4547822 57.43,10.76 C57.7334683,10.1201249 58.2119247,9.57926115 58.81,9.2 C59.8692889,8.53897525 61.1924806,8.46357971 62.32,9 C62.7699809,9.2034852 63.1669436,9.50805144 63.48,9.89 L63.48,9.5 C63.4739051,9.29302563 63.5493153,9.09193201 63.69,8.94 C63.8294364,8.79161942 64.0265701,8.71130569 64.23,8.72 C64.4371546,8.71281141 64.6386513,8.78837267 64.79,8.93 Z M62.31,15.58 C62.7036807,15.3155411 63.0181957,14.949183 63.22,14.52 C63.6538645,13.5670596 63.6538645,12.4729404 63.22,11.52 C63.0181957,11.090817 62.7036807,10.7244589 62.31,10.46 C61.9311446,10.1753819 61.4736264,10.0147266 61,10 C60.5243139,9.99256033 60.0573991,10.1284535 59.66,10.39 C59.2693169,10.6535565 58.9553522,11.0158235 58.75,11.44 C58.5117201,11.925044 58.3917763,12.4596507 58.4,13 C58.3864796,13.5247061 58.4960746,14.0452825 58.72,14.52 C58.9250867,14.9470488 59.2389258,15.3126197 59.63,15.58 C60.4513182,16.0872812 61.4886818,16.0872812 62.31,15.58 Z" id="Shape" fill="#FFFFFF"></path>
                <path d="M68.36,17 C68.2183738,17.1451591 68.0227449,17.2248597 67.82,17.22 C67.6170302,17.2260957 67.4209233,17.1462003 67.28,17 C67.13991,16.8517211 67.064383,16.6539124 67.07,16.45 L67.07,6.14 C67.0639043,5.93703024 67.1437997,5.74092326 67.29,5.6 C67.4305999,5.45217441 67.6259911,5.36895225 67.83,5.37 C68.0347478,5.36519509 68.2315972,5.44903838 68.37,5.6 C68.5122137,5.74358977 68.5913807,5.93790878 68.59,6.14 L68.59,16.44 C68.5954231,16.6506916 68.5119454,16.8539419 68.36,17 Z" id="Shape" fill="#FFFFFF"></path>
                <path d="M78,8.93 C78.1422182,9.08500068 78.2176631,9.28977989 78.21,9.5 L78.21,16.44 C78.2183155,16.6473373 78.1425965,16.8492547 78,17 C77.68955,17.287143 77.21045,17.287143 76.9,17 C76.7583727,16.8486513 76.6828114,16.6471546 76.69,16.44 L76.69,16 C76.388662,16.3967543 76.0026229,16.7213005 75.56,16.95 C75.0844795,17.2086065 74.551285,17.3427651 74.01,17.34 C73.3025674,17.3556674 72.6064356,17.1607505 72.01,16.78 C71.4089442,16.4013452 70.9271032,15.8605741 70.62,15.22 C70.29071,14.5273328 70.129672,13.7666854 70.15,13 C70.1373705,12.2231828 70.3123188,11.4547822 70.66,10.76 C70.9556657,10.1272844 71.4191283,9.58773095 72,9.2 C73.0692817,8.5244042 74.4116019,8.44878052 75.55,9 C76.0017015,9.20060082 76.3992841,9.50564261 76.71,9.89 L76.71,9.5 C76.7039051,9.29302563 76.7793153,9.09193201 76.92,8.94 C77.0625243,8.79003695 77.2633699,8.70969871 77.47,8.72 C77.6670276,8.71961362 77.8567073,8.79476976 78,8.93 Z M75.52,15.58 C75.9136807,15.3155411 76.2281957,14.949183 76.43,14.52 C76.8638645,13.5670596 76.8638645,12.4729404 76.43,11.52 C76.2281957,11.090817 75.9136807,10.7244589 75.52,10.46 C75.1383794,10.173434 74.6770678,10.0126739 74.2,10 C73.7274554,9.99270969 73.2637778,10.1286753 72.87,10.39 C72.4864993,10.6676935 72.1857624,11.0444788 72,11.48 C71.765492,11.9529659 71.6391075,12.4721668 71.63,13 C71.6370717,13.5280932 71.7635644,14.0477388 72,14.52 C72.2054026,14.9498742 72.523305,15.3161531 72.92,15.58 C73.2960042,15.8429804 73.7412857,15.9890884 74.2,16 C74.6789364,15.9992127 75.1462982,15.8527261 75.54,15.58 L75.52,15.58 Z" id="Shape" fill="#FFFFFF"></path>
                <path d="M87.32,12.09 L87.32,16.44 C87.325617,16.6439124 87.25009,16.8417211 87.11,16.99 C86.9622178,17.1382746 86.7591898,17.2180356 86.55,17.21 C86.344505,17.22565 86.142772,17.1486247 86,17 C85.8532857,16.8552955 85.7735548,16.6559682 85.78,16.45 L85.78,12.11 C85.8084617,11.5728663 85.6571621,11.0415587 85.35,10.6 C85.0167994,10.2022585 84.5185096,9.98079636 84,10 C83.5964927,9.99911633 83.198673,10.0951418 82.84,10.28 C82.5072551,10.4568445 82.2276586,10.7191819 82.03,11.04 C81.8360664,11.337618 81.7319186,11.6847775 81.73,12.04 L81.73,16.37 C81.735617,16.5739124 81.66009,16.7717211 81.52,16.92 C81.3722178,17.0682746 81.1691898,17.1480356 80.96,17.14 C80.7587381,17.1474879 80.5633246,17.0714937 80.42,16.93 C80.2783727,16.7786513 80.2028114,16.5771546 80.21,16.37 L80.21,9.6 C80.2035548,9.39403176 80.2832857,9.19470447 80.43,9.05 C80.5663475,8.90319703 80.7597715,8.82290782 80.96,8.83 C81.1691898,8.82196438 81.3722178,8.90172537 81.52,9.05 C81.66009,9.19827886 81.735617,9.39608756 81.73,9.6 L81.73,10.16 C82.0250128,9.71264957 82.4227438,9.34234825 82.89,9.08 C83.3684652,8.78762318 83.9192951,8.63519228 84.48,8.64 C86.3733333,8.64 87.32,9.79 87.32,12.09 Z" id="Shape" fill="#FFFFFF"></path>
                <path d="M95,9 C95.56,9.26 95.84,9.59333333 95.84,10 C95.839735,10.1794626 95.7759712,10.3530418 95.66,10.49 C95.549978,10.6250957 95.3842116,10.7024534 95.21,10.7 C95.096881,10.7051686 94.98406,10.6846557 94.88,10.64 C94.7686023,10.5774895 94.6616785,10.5073208 94.56,10.43 C94.4638859,10.3469907 94.3600839,10.2733247 94.25,10.21 C94.0792773,10.1292714 93.8971442,10.075306 93.71,10.05 C93.508242,10.0177788 93.3043119,10.0010632 93.1,10 C92.5830155,9.98868211 92.0733815,10.1238912 91.63,10.39 C91.2031336,10.6416577 90.8563862,11.00921 90.63,11.45 C90.3895865,11.9307184 90.2694798,12.4626192 90.28,13 C90.2711485,13.5276084 90.3912966,14.0493943 90.63,14.52 C90.8550137,14.9617585 91.2020868,15.3296561 91.63,15.58 C92.0392123,15.8436271 92.5133456,15.9889818 93,16 C93.4599324,16.0205918 93.9184337,15.9350505 94.34,15.75 C94.4470798,15.6856966 94.5505673,15.6155921 94.65,15.54 C94.7343659,15.4643652 94.8285483,15.4004557 94.93,15.35 C95.0195284,15.303411 95.1190768,15.2793821 95.22,15.28 C95.4105222,15.2722125 95.5955605,15.3447765 95.73,15.48 C95.8520015,15.6252454 95.9160978,15.8104125 95.91,16 C95.8823493,16.2766805 95.7269758,16.5245382 95.49,16.67 C95.1467296,16.9168169 94.7599608,17.0966304 94.35,17.2 C93.8528698,17.3437666 93.3374814,17.4145062 92.82,17.41 C92.0672378,17.4251915 91.3254718,17.2276183 90.68,16.84 C90.0623567,16.4694094 89.5655853,15.927477 89.25,15.28 C88.9040429,14.571032 88.7358681,13.7885047 88.76,13 C88.7515735,12.2245016 88.9335608,11.4587814 89.29,10.77 C89.6274761,10.1222761 90.1358547,9.57931394 90.76,9.2 C91.4161446,8.82152006 92.1626173,8.62799012 92.92,8.64 C93.6313757,8.60550116 94.3415987,8.72842438 95,9 Z" id="Shape" fill="#FFFFFF"></path>
                <path d="M104.3,13.19 C104.154132,13.3198929 103.965316,13.3911442 103.77,13.39 L98.14,13.39 C98.1737926,14.1011568 98.4820752,14.7714923 99,15.26 C99.5149221,15.7303613 100.192918,15.9814708 100.89,15.96 C101.317588,15.9766544 101.743792,15.9016425 102.14,15.74 C102.453482,15.5950454 102.740722,15.3990469 102.99,15.16 C103.128603,15.0742425 103.287122,15.0259974 103.45,15.02 C103.62314,15.0163101 103.789931,15.0852024 103.91,15.21 C104.026673,15.3306026 104.091313,15.4922031 104.09,15.66 C104.083759,15.9019706 103.965537,16.1273324 103.77,16.27 C103.415564,16.6087154 102.997509,16.8738231 102.54,17.05 C102.044109,17.2630759 101.509727,17.3719945 100.97,17.37 C100.176553,17.3858007 99.3920723,17.2000026 98.69,16.83 C98.048622,16.4788215 97.5211785,15.951378 97.17,15.31 C96.8067357,14.6309735 96.6242225,13.869928 96.64,13.1 C96.6202514,12.2794227 96.8095166,11.4673028 97.19,10.74 C97.5234697,10.098515 98.0245668,9.55940355 98.64,9.18 C99.8333818,8.47391943 101.316618,8.47391943 102.51,9.18 C103.753042,9.92595464 104.512566,11.2703124 104.51,12.72 C104.502239,12.8976531 104.427157,13.0656936 104.3,13.19 Z M99.07,10.55 C98.5940232,10.9419921 98.2833578,11.4990473 98.2,12.11 L102.92,12.11 L102.92,12 C102.876007,11.4496282 102.599589,10.9440746 102.16,10.61 C101.250832,9.90443026 99.9791678,9.90443026 99.07,10.61 L99.07,10.55 Z" id="Shape" fill="#FFFFFF"></path>
                <path d="M113.69,6.14 C113.774769,6.22880036 113.821428,6.34724339 113.82,6.47 C113.823672,6.59315869 113.776684,6.7124363 113.69,6.8 C113.591537,6.88074676 113.467294,6.92334438 113.34,6.92 L110,6.92 L110,16.73 C110.001617,16.8626039 109.947138,16.9897197 109.85,17.08 C109.755658,17.1687909 109.62943,17.2156756 109.5,17.21 C109.367166,17.2184545 109.236785,17.1713726 109.14,17.08 C109.052175,16.9850613 109.005445,16.8592511 109.01,16.73 L109.01,6.92 L105.7,6.92 C105.57057,6.92567564 105.444342,6.87879094 105.35,6.79 C105.256377,6.70643875 105.205024,6.58539123 105.21,6.46 C105.207997,6.3380668 105.259089,6.22128332 105.35,6.14 C105.444342,6.05120906 105.57057,6.00432436 105.7,6.01 L113.31,6.01 C113.449423,5.99704816 113.587726,6.04436241 113.69,6.14 Z" id="Shape" fill="#FFFFFF"></path>
                <path d="M118.75,9 C118.902398,9.06459049 119.001011,9.21448204 119,9.38 C119.006777,9.51083184 118.963921,9.6394006 118.88,9.74 C118.803534,9.83164435 118.689312,9.88322821 118.57,9.88 C118.463895,9.86554049 118.359852,9.83869053 118.26,9.8 C118.118523,9.75009569 117.969989,9.72308942 117.82,9.72 C117.385634,9.73387011 116.96915,9.89622822 116.64,10.18 C116.228749,10.4960245 115.888127,10.8945532 115.64,11.35 C115.399668,11.7992958 115.272658,12.3004716 115.27,12.81 L115.27,16.81 C115.270784,16.9404638 115.220543,17.0660667 115.13,17.16 C115.040033,17.2492828 114.916584,17.2964838 114.79,17.29 C114.66057,17.2956756 114.534342,17.2487909 114.44,17.16 C114.352175,17.0650613 114.305445,16.9392511 114.31,16.81 L114.31,9.56 C114.303516,9.43341601 114.350717,9.30996734 114.44,9.22 C114.532694,9.12755782 114.659123,9.07698607 114.79,9.08 C115.055097,9.08 115.27,9.29490332 115.27,9.56 L115.27,11 C115.498927,10.4067986 115.882131,9.88550256 116.38,9.49 C116.87545,9.08961498 117.492993,8.87082828 118.13,8.87 C118.344086,8.86315778 118.556694,8.90773673 118.75,9 Z" id="Shape" fill="#FFFFFF"></path>
                <path d="M127,9.18 C127.090543,9.27393328 127.140784,9.39953619 127.14,9.53 L127.14,16.73 C127.140784,16.8604638 127.090543,16.9860667 127,17.08 C126.910033,17.1692828 126.786584,17.2164838 126.66,17.21 C126.53057,17.2156756 126.404342,17.1687909 126.31,17.08 C126.222175,16.9850613 126.175445,16.8592511 126.18,16.73 L126.18,15.66 C125.889556,16.1589331 125.476506,16.575426 124.98,16.87 C124.457122,17.2020107 123.849355,17.3756582 123.23,17.37 C122.545676,17.3765981 121.874513,17.1818566 121.3,16.81 C120.723937,16.4297072 120.261034,15.9011678 119.96,15.28 C119.631355,14.5935182 119.463764,13.8410691 119.47,13.08 C119.458819,12.3236862 119.630342,11.5758461 119.97,10.9 C120.272543,10.2820743 120.739675,9.75957808 121.32,9.39 C121.884831,9.02242108 122.546155,8.83098497 123.22,8.84 C123.838117,8.83664282 124.445848,8.9989346 124.98,9.31 C125.485183,9.59330983 125.900892,10.0124831 126.18,10.52 L126.18,9.52 C126.175445,9.39074891 126.222175,9.2649387 126.31,9.17 C126.400557,9.074362 126.528467,9.02319792 126.66,9.03 C126.790492,9.02441368 126.916155,9.07985349 127,9.18 Z M124.81,16 C125.242643,15.6860338 125.587056,15.2658506 125.81,14.78 C126.062375,14.2351249 126.188836,13.6404199 126.18,13.04 C126.189337,12.4556018 126.062668,11.8770362 125.81,11.35 C125.589967,10.8650615 125.244817,10.447431 124.81,10.14 C124.363824,9.8497211 123.842282,9.69673547 123.31,9.7 C122.778417,9.69137696 122.25628,9.8410561 121.81,10.13 C121.377909,10.4319239 121.032998,10.8423678 120.81,11.32 C120.555219,11.8569732 120.428561,12.4457585 120.44,13.04 C120.431164,13.6404199 120.557625,14.2351249 120.81,14.78 C121.022836,15.2720887 121.369256,15.6947211 121.81,16 C122.258864,16.2914253 122.784947,16.4412369 123.32,16.43 C123.84795,16.4348705 124.365824,16.2854168 124.81,16 Z" id="Shape" fill="#FFFFFF"></path>
                <path d="M135.35,9.71 C135.815784,10.3795801 136.044557,11.1855632 136,12 L136,16.7 C136.005474,16.8313091 135.954522,16.9586892 135.86,17.05 C135.76813,17.1362922 135.646006,17.1829869 135.52,17.18 C135.393806,17.1840945 135.271271,17.137243 135.18,17.05 C135.089457,16.9560667 135.039216,16.8304638 135.04,16.7 L135.04,12.08 C135.070281,11.4731092 134.886214,10.8748924 134.52,10.39 C134.121638,9.92946268 133.526678,9.68776019 132.92,9.74 C132.008586,9.74392761 131.15243,10.1775652 130.61,10.91 C130.36356,11.250392 130.230601,11.6597628 130.23,12.08 L130.23,16.73 C130.230784,16.8604638 130.180543,16.9860667 130.09,17.08 C130.000033,17.1692828 129.876584,17.2164838 129.75,17.21 C129.62057,17.2156756 129.494342,17.1687909 129.4,17.08 C129.312175,16.9850613 129.265445,16.8592511 129.27,16.73 L129.27,9.56 C129.263516,9.43341601 129.310717,9.30996734 129.4,9.22 C129.492694,9.12755782 129.619123,9.07698607 129.75,9.08 C130.015097,9.08 130.23,9.29490332 130.23,9.56 L130.23,10.44 C130.539495,9.96059279 130.96632,9.56818897 131.47,9.3 C131.969356,9.0027785 132.538897,8.84399737 133.12,8.84 C133.95965,8.75698361 134.788402,9.08030816 135.35,9.71 Z" id="Shape" fill="#FFFFFF"></path>
                <path d="M137.64,15.56 C137.64031,15.4211156 137.72271,15.2955536 137.85,15.24 C137.921876,15.1776942 138.014987,15.1454635 138.11,15.15 C138.244155,15.1509364 138.371516,15.2091584 138.46,15.31 C139.046708,16.1212791 139.999462,16.5864032 141,16.55 C141.470402,16.5591868 141.934175,16.438052 142.34,16.2 C142.690717,15.9882221 142.906485,15.6096829 142.91,15.2 C142.927134,14.7953577 142.724478,14.4129882 142.38,14.2 C141.924375,13.9288801 141.428,13.7330312 140.91,13.62 C140.16792,13.4640427 139.462128,13.1688317 138.83,12.75 C138.321572,12.3938508 138.033964,11.7997114 138.07,11.18 C138.065579,10.757456 138.195106,10.3443691 138.44,10 C138.694483,9.64503801 139.039931,9.36522528 139.44,9.19 C139.89054,8.99248771 140.378109,8.89360998 140.87,8.9 C141.346041,8.9032892 141.817344,8.99483724 142.26,9.17 C142.723384,9.34095627 143.13374,9.63061931 143.45,10.01 C143.548753,10.0853669 143.601671,10.2063227 143.59,10.33 C143.590046,10.4587048 143.531079,10.5803256 143.43,10.66 C143.353533,10.7289983 143.252876,10.764947 143.15,10.76 C143.038698,10.7625027 142.932186,10.7147558 142.86,10.63 C142.609088,10.3455422 142.298321,10.120151 141.95,9.97 C141.587383,9.82505991 141.200511,9.75040035 140.81,9.75 C140.355186,9.73934113 139.907057,9.86092671 139.52,10.1 C139.188383,10.3236555 138.992643,10.7000777 139,11.1 C138.999569,11.513345 139.221001,11.8951248 139.58,12.1 C140.089939,12.3733239 140.635046,12.5752156 141.2,12.7 C141.674032,12.8119648 142.136169,12.9693592 142.58,13.17 C142.931926,13.3322527 143.237825,13.5797216 143.47,13.89 C143.714605,14.2518731 143.83402,14.6838729 143.81,15.12 C143.819068,15.7724674 143.509269,16.3883327 142.98,16.77 C142.381865,17.2009681 141.656644,17.4192384 140.92,17.39 C139.707569,17.4381513 138.547486,16.8935465 137.81,15.93 C137.718913,15.8255931 137.659885,15.6971215 137.64,15.56 Z" id="Shape" fill="#FFFFFF"></path>
                <path d="M147.48,6.62 C147.277058,6.88582965 147.177558,7.21631273 147.2,7.55 L147.2,9.2 L149,9.2 C149.114501,9.2009024 149.224734,9.24357333 149.31,9.32 C149.399838,9.40205571 149.450708,9.51833019 149.45,9.64 C149.452003,9.7619332 149.400911,9.87871668 149.31,9.96 C149.228587,10.0436021 149.116692,10.0905257 149,10.09 L147.2,10.09 L147.2,16.73 C147.200784,16.8604638 147.150543,16.9860667 147.06,17.08 C146.968729,17.167243 146.846194,17.2140945 146.72,17.21 C146.59057,17.2156756 146.464342,17.1687909 146.37,17.08 C146.282175,16.9850613 146.235445,16.8592511 146.24,16.73 L146.24,10.09 L145.07,10.09 C144.94723,10.0963768 144.828639,10.0444935 144.75,9.95 C144.577272,9.77162939 144.577272,9.48837061 144.75,9.31 C144.839778,9.23570486 144.953517,9.19660692 145.07,9.2 L146.24,9.2 L146.24,7.55 C146.200473,6.97382538 146.411942,6.40869125 146.82,6 C147.245989,5.61522414 147.806552,5.41399661 148.38,5.44 C148.662671,5.43843541 148.943481,5.48580096 149.21,5.58 C149.47,5.67 149.6,5.82 149.6,6.02 C149.602095,6.13992712 149.555138,6.25551129 149.47,6.34 C149.396174,6.4225404 149.290739,6.46980425 149.18,6.47 C149.05966,6.46323646 148.941328,6.43618913 148.83,6.39 C148.648825,6.33105427 148.460379,6.29740326 148.27,6.29 C147.970512,6.27601142 147.680549,6.39713515 147.48,6.62 Z" id="Shape" fill="#FFFFFF"></path>
                <path d="M157.52,13 C157.429137,13.0890322 157.30721,13.1392374 157.18,13.14 L151.13,13.14 C151.120282,13.7331016 151.254082,14.3197628 151.52,14.85 C151.781939,15.3279545 152.169135,15.7255216 152.64,16 C153.163375,16.2975458 153.758177,16.4462461 154.36,16.43 C155.282952,16.4563702 156.16186,16.0355373 156.72,15.3 C156.807793,15.2124686 156.926048,15.1622998 157.05,15.16 C157.158541,15.1610229 157.262472,15.2040286 157.34,15.28 C157.42254,15.3538261 157.469804,15.4592608 157.47,15.57 C157.461884,15.6995666 157.404663,15.8211614 157.31,15.91 C156.954283,16.360867 156.508024,16.7321811 156,17 C155.494301,17.2655248 154.931162,17.4028758 154.36,17.4 C153.599339,17.4183983 152.847312,17.235566 152.18,16.87 C151.557162,16.5292375 151.046532,16.0151344 150.71,15.39 C150.347982,14.7141036 150.165493,13.9566047 150.18,13.19 C150.165156,12.3958019 150.343613,11.6099011 150.7,10.9 C151.014776,10.2778073 151.49594,9.75510323 152.09,9.39 C152.661538,9.02904909 153.324028,8.83827951 154,8.84 C154.628222,8.83685689 155.247166,8.99159295 155.8,9.29 C156.364062,9.5983998 156.836665,10.0503055 157.17,10.6 C157.531097,11.2223302 157.717649,11.9305367 157.71,12.65 C157.704548,12.7898672 157.634321,12.9192327 157.52,13 Z M152.23,10.43 C151.686467,10.9033008 151.33149,11.556458 151.23,12.27 L156.69,12.27 L156.69,12.14 C156.641875,11.6885728 156.476387,11.2576146 156.21,10.89 C155.949499,10.5382787 155.605936,10.256557 155.21,10.07 C154.833519,9.88255231 154.420442,9.78013655 154,9.77 C153.35172,9.7604937 152.722286,9.98808532 152.23,10.41 L152.23,10.43 Z" id="Shape" fill="#FFFFFF"></path>
                <path d="M163.72,9 C163.878189,9.0590877 163.982232,9.21115062 163.98,9.38 C163.988454,9.512834 163.941373,9.64321467 163.85,9.74 C163.778661,9.83260637 163.666799,9.88480869 163.55,9.88 C163.443665,9.8667314 163.339477,9.83984426 163.24,9.8 C163.09808,9.75178508 162.949809,9.7248267 162.8,9.72 C162.365303,9.73224339 161.948293,9.89480651 161.62,10.18 C161.203286,10.4902255 160.861548,10.8900599 160.62,11.35 C160.376942,11.798702 160.246536,12.2997375 160.24,12.81 L160.24,16.81 C160.244555,16.9392511 160.197825,17.0650613 160.11,17.16 C160.015658,17.2487909 159.88943,17.2956756 159.76,17.29 C159.633806,17.2940945 159.511271,17.247243 159.42,17.16 C159.329457,17.0660667 159.279216,16.9404638 159.28,16.81 L159.28,9.56 C159.277372,9.43213243 159.328097,9.30894314 159.42,9.22 C159.510258,9.13005399 159.632577,9.07968753 159.76,9.08 C159.890877,9.07698607 160.017306,9.12755782 160.11,9.22 C160.199283,9.30996734 160.246484,9.43341601 160.24,9.56 L160.24,11 C160.476297,10.4081843 160.862224,9.88787138 161.36,9.49 C161.854644,9.08817758 162.472714,8.86920445 163.11,8.87 C163.320763,8.86437063 163.529845,8.90892906 163.72,9 Z" id="Shape" fill="#FFFFFF"></path>
                <path d="M9.71,8 C9.51218632,7.80821671 9.19781368,7.80821671 9,8 C8.90534367,8.0938833 8.85210084,8.22168123 8.85210084,8.355 C8.85210084,8.48831877 8.90534367,8.6161167 9,8.71 L12.44,12.15 L0.15,12.15 L0.02,12.15 C0.02,12.31 0.02,12.47 0.02,12.63 C0.02,12.79 0.02,12.94 0.02,13.1 L0.15,13.1 L12.44,13.1 L9,16.55 C8.90534367,16.6438833 8.85210084,16.7716812 8.85210084,16.905 C8.85210084,17.0383188 8.90534367,17.1661167 9,17.26 C9.09231523,17.3542071 9.21811537,17.4081215 9.35,17.41 C9.48513358,17.409669 9.61461171,17.3557197 9.71,17.26 L14,13 C14.0905426,12.9060667 14.1407837,12.7804638 14.14,12.65 C14.1412864,12.5164757 14.0911578,12.3875737 14,12.29 L9.71,8 Z" id="Shape" fill="#FFFFFF"></path>
            </g>
        </g>
    </g>
</svg>