<?xml version="1.0" encoding="UTF-8"?>
<svg width="120px" height="148px" viewBox="0 0 120 148" version="1.1" xmlns="http://www.w3.org/2000/svg" xmlns:xlink="http://www.w3.org/1999/xlink">
    <!-- Generator: Sketch 49.1 (51147) - http://www.bohemiancoding.com/sketch -->
    <title>score</title>
    <desc>Created with Sketch.</desc>
    <defs>
        <linearGradient x1="0%" y1="50.0049816%" x2="100%" y2="50.0049816%" id="linearGradient-1">
            <stop stop-color="#A55EEA" offset="0%"></stop>
            <stop stop-color="#8854D0" offset="100%"></stop>
        </linearGradient>
    </defs>
    <g id="Page-1" stroke="none" stroke-width="1" fill="none" fill-rule="evenodd">
        <g id="Guide-2" transform="translate(-1227.000000, -964.000000)" fill="url(#linearGradient-1)" fill-rule="nonzero">
            <g id="Group-2" transform="translate(461.000000, 425.000000)">
                <g id="score" transform="translate(760.000000, 535.000000)">
                    <path d="M64.6930254,26.7787629 C64.4825662,28.6496177 63.9743313,30.4766541 63.1867881,32.1934845 C62.4247795,33.6811122 61.4398445,35.0486999 60.2646876,36.2508371 C59.0920087,37.4936573 57.7838149,38.6068529 56.3635328,39.5704893 C54.8572954,40.5590079 53.1552472,41.5622806 51.2724505,42.5212912 C50.1126477,43.1999757 49.1486558,43.8196441 48.3654124,44.3507884 C47.6514654,44.8339595 47.0122839,45.4153342 46.4675533,46.0770075 C45.9826453,46.6786489 45.5964302,47.3506439 45.3228129,48.0687988 C45.017604,48.9037068 44.8104177,49.769934 44.7052556,50.6507505 L44.3136339,53.2031942 L29.0855741,51.0786168 L29.6127572,47.4638845 C29.8070538,45.9495038 30.1863291,44.4634616 30.7424352,43.0376816 C31.233828,41.8257697 31.8981633,40.6882259 32.7156061,39.6590133 C33.5676355,38.6347433 34.5212278,37.6957312 35.5623948,36.8557515 C36.7731632,35.88233 38.0460001,34.9854378 39.3731753,34.1705218 L43.0182697,31.6623401 C44.2005463,30.9152384 45.2964845,30.0445642 46.2868048,29.0656344 C47.2315698,28.0741413 47.8279541,26.8127372 47.988853,25.4656561 C48.3484236,23.6664126 47.9163515,21.8020733 46.7989255,20.3312607 C45.5693694,18.8667615 43.7874983,17.9514951 41.858467,17.793571 C39.4741672,17.2951159 36.9946694,18.0176233 35.2762097,19.7115923 C33.653401,21.3280137 32.5621687,23.3835754 32.1432359,25.6131962 L16.9603633,21.7623996 C17.7290006,18.6527959 19.0826261,15.710769 20.9518923,13.087042 C22.63241,10.759055 24.7990991,8.80771688 27.308214,7.36248623 C29.7919487,5.94022444 32.5248626,4.98452313 35.3665839,4.54447038 C38.3611496,4.08943548 41.4094424,4.08943548 44.4040081,4.54447038 C47.2940093,4.90258464 50.1212564,5.64207495 52.8088126,6.74281782 C55.3635362,7.77932471 57.6942477,9.28129585 59.677255,11.1690207 C61.6144018,13.046211 63.0878723,15.3322849 63.9850939,17.8525871 C64.9709138,20.7248749 65.2141507,23.7918033 64.6930254,26.7787629 Z M43.8712704,67.9942302 C43.5590947,70.5287441 42.2465792,72.8170607 40.2448092,74.3168161 C38.2296161,75.8639034 35.692544,76.4984315 33.2157425,76.0748034 C31.9749477,75.9056089 30.7783421,75.486465 29.6937472,74.8411281 C28.6412606,74.2226863 27.718048,73.3945124 26.9776323,72.4046194 C26.2348184,71.4242164 25.6732589,70.310726 25.3211006,69.1199589 C24.9605456,67.8863594 24.8688075,66.5855673 25.0524739,65.3109865 C25.2276174,64.0611044 25.6437498,62.8602587 26.276218,61.779591 C26.9047501,60.7078797 27.7374152,59.7792685 28.7237062,59.0500844 C29.7269727,58.3300515 30.8500925,57.8072856 32.0367695,57.5079903 C33.2705462,57.1867252 34.5533221,57.1186157 35.8124678,57.3075181 C37.0541785,57.4806499 38.2480347,57.9163587 39.3195393,58.5874562 C40.3555052,59.2297182 41.2747357,60.0543199 42.0356542,61.0239649 C42.7988321,61.9839308 43.3490066,63.1051497 43.6474147,64.3086253 C43.966331,65.5082136 44.0425351,66.7628524 43.8712704,67.9942302 Z" id="Shape" transform="translate(40.960363, 40.203194) rotate(-12.000000) translate(-40.960363, -40.203194) "></path>
                    <path d="M48.6092726,113.951633 C48.4473062,115.391417 48.0561758,116.797478 47.4500938,118.118726 C46.8636629,119.263583 46.105671,120.316059 45.2012871,121.241206 C44.2988102,122.197663 43.292043,123.054362 42.1990141,123.795963 C41.0398354,124.556713 39.7299634,125.328817 38.28099,126.066858 C37.3884223,126.589164 36.6465479,127.066052 36.043775,127.474813 C35.4943316,127.846655 35.0024267,128.294072 34.5832098,128.803287 C34.2100315,129.266301 33.9128059,129.783459 33.7022339,130.336141 C33.4673495,130.978674 33.3079019,131.64531 33.2269706,132.323174 L32.9255842,134.287498 L21.206287,132.652454 L21.6119996,129.870607 C21.7615275,128.705162 22.0534123,127.561525 22.4813837,126.464265 C22.8595526,125.531595 23.3708155,124.656157 23.9999078,123.86409 C24.6556174,123.075826 25.3894885,122.353176 26.1907556,121.70674 C27.1225457,120.957609 28.1021028,120.267373 29.1234779,119.640225 L31.9286904,117.709965 C32.8385536,117.135006 33.681972,116.464947 34.4441083,115.711577 C35.171186,114.948538 35.6301548,113.97778 35.7539803,112.941085 C36.0307006,111.556413 35.6981842,110.121644 34.8382291,108.989728 C33.8919803,107.86267 32.5206778,107.158294 31.0361228,107.036758 C29.2011998,106.653154 27.2930138,107.209186 25.9705117,108.51284 C24.7216214,109.756815 23.8818246,111.338746 23.5594199,113.05463 L11.8748981,110.091112 C12.4664304,107.698005 13.5081613,105.433864 14.9467218,103.414681 C16.2400242,101.623095 17.9074772,100.121373 19.8384561,99.0091445 C21.7499028,97.9145921 23.8531143,97.1790981 26.0400624,96.8404398 C28.3446373,96.4902514 30.6905599,96.4902514 32.9951349,96.8404398 C35.2192385,97.1160394 37.3950475,97.6851406 39.4633523,98.5322565 C41.429431,99.3299374 43.2231133,100.485833 44.7492074,101.938599 C46.2400078,103.383258 47.3739697,105.142588 48.0644586,107.082176 C48.8231315,109.292648 49.0103231,111.652912 48.6092726,113.951633 Z M32.5851475,145.670468 C32.3449016,147.620994 31.3348085,149.382049 29.7942749,150.53624 C28.243411,151.726856 26.2909167,152.21518 24.3848056,151.889162 C23.4299077,151.758952 22.5090171,151.436385 21.6743284,150.939743 C20.8643497,150.463799 20.1538585,149.826448 19.5840452,149.06464 C19.0123862,148.310136 18.5802181,147.45321 18.3092021,146.536813 C18.0317241,145.587452 17.9611238,144.586381 18.1024708,143.605482 C18.2372588,142.643591 18.5575082,141.719437 19.0442468,140.88777 C19.5279561,140.062997 20.1687633,139.348351 20.9277987,138.787181 C21.6998983,138.233054 22.5642352,137.830741 23.4774848,137.600408 C24.4269818,137.353167 25.4141878,137.30075 26.3832082,137.446127 C27.3388111,137.579367 28.2575857,137.914682 29.0822003,138.431149 C29.8794649,138.925425 30.5868916,139.560026 31.1724836,140.306251 C31.7598144,141.045027 32.1832208,141.907901 32.4128714,142.834079 C32.6583049,143.757265 32.7169504,144.722817 32.5851475,145.670468 Z" id="Shape-Copy-2" opacity="0.5" transform="translate(30.344955, 124.282884) rotate(-32.000000) translate(-30.344955, -124.282884) "></path>
                    <path d="M123.330288,77.8888179 C123.119829,79.7596727 122.611594,81.5867091 121.824051,83.3035395 C121.062043,84.7911672 120.077108,86.1587549 118.901951,87.3608921 C117.729272,88.6037123 116.421078,89.7169079 115.000796,90.6805443 C113.494558,91.669063 111.79251,92.6723356 109.909714,93.6313462 C108.749911,94.3100307 107.785919,94.9296991 107.002675,95.4608434 C106.288728,95.9440145 105.649547,96.5253893 105.104816,97.1870626 C104.619908,97.7887039 104.233693,98.4606989 103.960076,99.1788539 C103.654867,100.013762 103.447681,100.879989 103.342519,101.760806 L102.950897,104.313249 L87.7228371,102.188672 L88.2500202,98.5739395 C88.4443168,97.0595588 88.8235921,95.5735166 89.3796982,94.1477366 C89.8710911,92.9358248 90.5354263,91.798281 91.3528692,90.7690684 C92.2048985,89.7447983 93.1584909,88.8057862 94.1996578,87.9658065 C95.4104262,86.9923851 96.6832631,86.0954928 98.0104383,85.2805768 L101.655533,82.7723951 C102.837809,82.0252934 103.933748,81.1546192 104.924068,80.1756894 C105.868833,79.1841963 106.465217,77.9227922 106.626116,76.5757111 C106.985687,74.7764676 106.553615,72.9121283 105.436189,71.4413157 C104.206632,69.9768165 102.424761,69.0615501 100.49573,68.9036261 C98.1114303,68.4051709 95.6319325,69.1276783 93.9134727,70.8216473 C92.2906641,72.4380687 91.1994318,74.4936304 90.780499,76.7232512 L75.5976263,72.8724547 C76.3662636,69.7628509 77.7198892,66.820824 79.5891554,64.197097 C81.269673,61.86911 83.4363622,59.9177719 85.945477,58.4725412 C88.4292117,57.0502795 91.1621256,56.0945782 94.0038469,55.6545254 C96.9984126,55.1994905 100.046705,55.1994905 103.041271,55.6545254 C105.931272,56.0126397 108.758519,56.75213 111.446076,57.8528728 C114.000799,58.8893797 116.331511,60.3913509 118.314518,62.2790757 C120.251665,64.156266 121.725135,66.4423399 122.622357,68.9626421 C123.608177,71.8349299 123.851414,74.9018583 123.330288,77.8888179 Z M100.893779,118.455202 C100.581603,120.989716 99.2690875,123.278033 97.2673175,124.777788 C95.2521243,126.324875 92.7150523,126.959403 90.2382507,126.535775 C88.997456,126.366581 87.8008503,125.947437 86.7162555,125.3021 C85.6637688,124.683658 84.7405562,123.855484 84.0001406,122.865591 C83.2573267,121.885188 82.6957672,120.771698 82.3436089,119.580931 C81.9830538,118.347331 81.8913158,117.046539 82.0749822,115.771958 C82.2501257,114.522076 82.666258,113.321231 83.2987263,112.240563 C83.9272583,111.168852 84.7599235,110.24024 85.7462145,109.511056 C86.749481,108.791023 87.8726007,108.268257 89.0592778,107.968962 C90.2930545,107.647697 91.5758304,107.579588 92.834976,107.76849 C94.0766868,107.941622 95.270543,108.377331 96.3420475,109.048428 C97.3780135,109.69069 98.297244,110.515292 99.0581625,111.484937 C99.8213404,112.444903 100.371515,113.566122 100.669923,114.769597 C100.988839,115.969185 101.065043,117.223824 100.893779,118.455202 Z" id="Shape-Copy" opacity="0.8" transform="translate(99.597626, 90.988708) rotate(6.000000) translate(-99.597626, -90.988708) "></path>
                </g>
            </g>
        </g>
    </g>
</svg>