<?xml version="1.0" encoding="UTF-8"?>
<svg width="105px" height="162px" viewBox="0 0 105 162" version="1.1" xmlns="http://www.w3.org/2000/svg" xmlns:xlink="http://www.w3.org/1999/xlink">
    <!-- Generator: Sketch 49.1 (51147) - http://www.bohemiancoding.com/sketch -->
    <title>calculator</title>
    <desc>Created with Sketch.</desc>
    <defs>
        <linearGradient x1="0%" y1="50%" x2="100%" y2="50%" id="linearGradient-1">
            <stop stop-color="#FFB82A" offset="0%"></stop>
            <stop stop-color="#FFEA7F" offset="100%"></stop>
        </linearGradient>
        <linearGradient x1="0.000507968886%" y1="49.9997279%" x2="99.9987048%" y2="49.9997279%" id="linearGradient-2">
            <stop stop-color="#FFB82A" offset="0%"></stop>
            <stop stop-color="#FFEA7F" offset="100%"></stop>
        </linearGradient>
    </defs>
    <g id="Page-1" stroke="none" stroke-width="1" fill="none" fill-rule="evenodd">
        <g id="Guide-4" transform="translate(-477.000000, -2169.000000)" fill-rule="nonzero">
            <g id="Group" transform="translate(450.000000, 425.000000)">
                <g id="calculator" transform="translate(27.000000, 1744.000000)">
                    <rect id="Rectangle-path" fill="#3F3D59" x="0" y="0" width="104.652823" height="161.69466" rx="12"></rect>
                    <ellipse id="Oval" stroke="#DFE6E9" fill="#FFFFFF" cx="63.6054435" cy="141.707592" rx="8.98004032" ry="8.99481675"></ellipse>
                    <polygon id="Shape" fill="#000000" points="63.1820565 143.543874 64.0288306 143.543874 64.0288306 144.519267 63.1820565 144.519267"></polygon>
                    <ellipse id="Oval" stroke="#DFE6E9" fill="#FFFFFF" cx="63.6054435" cy="74.1128796" rx="8.98004032" ry="8.99481675"></ellipse>
                    <path d="M61.3403226,76.2332984 L61.7637097,75.669267 C62.1867018,76.0955063 62.7559909,76.3442218 63.3556452,76.3647644 C64.5241935,76.3647644 65.3116935,75.1773298 65.2820565,73.5191623 C64.903684,74.172255 64.2025574,74.5696192 63.4487903,74.5581675 C62.115121,74.5581675 61.1921371,73.71 61.1921371,72.5437696 C61.1911287,71.9350559 61.4408833,71.3528911 61.8824552,70.9346742 C62.3240272,70.5164572 62.9182938,70.2992416 63.525,70.3342932 C64.1577017,70.3136377 64.7707264,70.5561809 65.2185484,71.0043455 C65.7096774,71.4962827 66.0229839,72.2172251 66.0229839,73.5149215 L66.0229839,73.5361257 C66.0229839,75.5929319 64.9306452,77.0517801 63.3302419,77.0517801 C62.5884291,77.0361682 61.8790128,76.7443753 61.3403226,76.2332984 Z M65.1508065,72.4631937 L65.1508065,72.4419895 C65.1382547,72.0237525 64.9548771,71.6290054 64.6435401,71.3500245 C64.3322032,71.0710437 63.9201963,70.9322826 63.5038306,70.966178 C63.0924889,70.948515 62.6921783,71.1020873 62.3978584,71.3904652 C62.1035386,71.6788431 61.9414346,72.076331 61.95,72.4886387 C61.95,73.3156021 62.5977823,73.9093194 63.5419355,73.9093194 C63.9458948,73.9312457 64.3419142,73.7909628 64.642299,73.5195348 C64.9426838,73.2481069 65.1226474,72.8679311 65.1423387,72.4631937 L65.1508065,72.4631937 Z" id="Shape" fill="#000000"></path>
                    <ellipse id="Oval" stroke="#DFE6E9" fill="#FFFFFF" cx="63.6054435" cy="96.5257068" rx="8.98004032" ry="8.99481675"></ellipse>
                    <path d="M61.9881048,98.8115183 C61.4673387,98.2941361 61.1709677,97.6240838 61.1709677,96.3009424 L61.1709677,96.2670157 C61.1709677,94.2907853 62.1743952,92.7428796 63.8679435,92.7428796 C64.5754265,92.7452182 65.2570509,93.0095557 65.7816532,93.4850262 L65.3582661,94.0532984 C64.9487509,93.6527379 64.4021226,93.4237165 63.8298387,93.4129319 C62.6528226,93.4129319 61.9245968,94.6003665 61.9330645,96.2754974 C62.3296112,95.6428633 63.0292349,95.2658947 63.7747984,95.2831414 C64.9772177,95.2831414 66.0145161,96.0634555 66.0145161,97.2805759 C66.0064,97.8804488 65.7532333,98.4507884 65.3140189,98.8586718 C64.8748045,99.2665552 64.2879116,99.4763503 63.690121,99.4391623 C63.0618612,99.4660493 62.4489774,99.2400393 61.9881048,98.8115183 Z M65.265121,97.3357068 C65.265121,96.5384293 64.6173387,95.944712 63.6816532,95.944712 C63.2783194,95.9167969 62.8805015,96.0509853 62.576189,96.3175975 C62.2718764,96.5842097 62.0861471,96.9612745 62.0600806,97.3653927 C62.0748207,97.7795672 62.2584238,98.1695826 62.5680664,98.444472 C62.877709,98.7193613 63.2863177,98.8550898 63.6985887,98.82 C64.1111084,98.8488988 64.5166064,98.7018128 64.8150004,98.4150448 C65.1133944,98.1282768 65.2768852,97.7285428 65.265121,97.3145026 L65.265121,97.3357068 Z" id="Shape" fill="#000000"></path>
                    <ellipse id="Oval" stroke="#DFE6E9" fill="#FFFFFF" cx="63.6054435" cy="118.942775" rx="8.98004032" ry="8.99481675"></ellipse>
                    <path d="M61.2302419,120.706963 L61.7552419,120.23199 C62.1962673,120.840138 62.9015943,121.19969 63.6520161,121.198901 C64.011388,121.230667 64.3678403,121.111889 64.636595,120.870817 C64.9053496,120.629745 65.0623889,120.287923 65.0703629,119.926649 C65.0703629,119.12089 64.3209677,118.675602 63.2540323,118.675602 L62.8306452,118.675602 L62.6824597,118.251518 L64.7274194,115.940262 L61.5604839,115.940262 L61.5604839,115.282932 L65.7012097,115.282932 L65.7012097,115.821518 L63.6647177,118.086126 C64.7951613,118.175183 65.8028226,118.722251 65.8028226,119.909686 L65.8028226,119.93089 C65.8028226,121.088639 64.8417339,121.885916 63.6350806,121.885916 C62.6905921,121.904246 61.795226,121.4653 61.2302419,120.706963 Z" id="Shape" fill="#000000"></path>
                    <ellipse id="Oval" stroke="#DFE6E9" fill="#FFFFFF" cx="63.6054435" cy="52.7263351" rx="8.98004032" ry="8.99481675"></ellipse>
                    <path d="M60.2225806,51.1657068 L60.2225806,51.1445026 C60.1948316,50.7266332 60.3363789,50.315195 60.6152389,50.003156 C60.8940989,49.6911169 61.2867378,49.5048108 61.7044355,49.4863351 C62.1162303,49.5058187 62.5027053,49.6910988 62.7761463,50.0001245 C63.0495873,50.3091501 63.1868038,50.7157128 63.1566532,51.1275393 C63.1856109,51.5440123 63.0463124,51.9546777 62.7700512,52.2672788 C62.49379,52.5798799 62.1037304,52.7682054 61.6875,52.7899476 C61.2774129,52.7713392 60.8918011,52.5891761 60.6166152,52.2840616 C60.3414293,51.9789471 60.1995425,51.5762419 60.2225806,51.1657068 Z M62.5469758,51.1657068 L62.5469758,51.1445026 C62.5469758,50.4956545 62.1574597,50.0037173 61.7002016,50.0037173 C61.2429435,50.0037173 60.8534274,50.5168586 60.8534274,51.1275393 C60.8534274,51.7763874 61.2302419,52.2683246 61.7002016,52.2683246 C62.1701613,52.2683246 62.5469758,51.7848691 62.5469758,51.1657068 Z M65.6504032,49.5584293 L66.3066532,49.5584293 L61.55625,56.0511518 L60.8915323,56.0511518 L65.6504032,49.5584293 Z M64.0457661,54.4820419 C64.0168214,54.0652943 64.1568141,53.6544541 64.4340972,53.3423964 C64.7113802,53.0303387 65.102541,52.8434124 65.5191532,52.8238743 C65.9313697,52.8421965 66.3185573,53.0271383 66.5922425,53.3364399 C66.8659277,53.6457416 67.0027233,54.0529722 66.971371,54.4650785 C67.0394176,55.0306342 66.7764333,55.5849217 66.295673,55.8892358 C65.8149126,56.19355 65.2022245,56.19355 64.7214641,55.8892358 C64.2407038,55.5849217 63.9777195,55.0306342 64.0457661,54.4650785 L64.0457661,54.4820419 Z M66.3616935,54.4820419 C66.3616935,53.8331937 65.9806452,53.3412565 65.5149194,53.3412565 C65.0491935,53.3412565 64.6681452,53.8501571 64.6681452,54.4650785 C64.6681452,55.1139267 65.0449597,55.6058639 65.5149194,55.6058639 C65.984879,55.6058639 66.3616935,55.105445 66.3616935,54.4820419 Z" id="Shape" fill="#000000"></path>
                    <ellipse id="Oval" stroke="#FFFFFF" fill="url(#linearGradient-1)" cx="85.2997984" cy="74.1128796" rx="8.98004032" ry="8.99481675"></ellipse>
                    <polygon id="Shape" fill="#FFFFFF" points="85.2955645 75.1349215 83.6824597 76.7591623 83.2209677 76.2926702 84.8510081 74.6811518 83.2209677 73.0653927 83.703629 72.586178 85.3125 74.2273822 86.9256048 72.586178 87.3870968 73.0484293 85.7485887 74.6599476 87.3870968 76.2757068 86.9044355 76.7591623"></polygon>
                    <ellipse id="Oval" stroke="#FFFFFF" fill="url(#linearGradient-2)" cx="85.2997984" cy="52.7263351" rx="8.98004032" ry="8.99481675"></ellipse>
                    <path d="M83.0346774,53.6253927 L83.0346774,52.9765445 L87.5649194,52.9765445 L87.5649194,53.6253927 L83.0346774,53.6253927 Z M84.8340726,50.9748691 L85.7655242,50.9748691 L85.7655242,51.9375393 L84.8340726,51.9375393 L84.8340726,50.9748691 Z M84.8340726,54.6643979 L85.7655242,54.6643979 L85.7655242,55.6228272 L84.8340726,55.6228272 L84.8340726,54.6643979 Z" id="Shape" fill="#FFFFFF"></path>
                    <ellipse id="Oval" stroke="#FFFFFF" fill="url(#linearGradient-2)" cx="85.2997984" cy="96.5257068" rx="8.98004032" ry="8.99481675"></ellipse>
                    <polygon id="Shape" fill="#FFFFFF" points="83.0346774 97.4459686 83.0346774 96.7631937 87.5649194 96.7631937 87.5649194 97.4459686"></polygon>
                    <ellipse id="Oval" stroke="#FFFFFF" fill="url(#linearGradient-2)" cx="85.2997984" cy="118.942775" rx="8.98004032" ry="8.99481675"></ellipse>
                    <polygon id="Shape" fill="#FFFFFF" points="84.952621 119.854555 83.0346774 119.854555 83.0346774 119.188743 84.952621 119.188743 84.952621 117.276126 85.6469758 117.276126 85.6469758 119.188743 87.5649194 119.188743 87.5649194 119.854555 85.6469758 119.854555 85.6469758 121.762932 84.952621 121.762932"></polygon>
                    <ellipse id="Oval" stroke="#FFFFFF" fill="url(#linearGradient-2)" cx="85.2997984" cy="141.707592" rx="8.98004032" ry="8.99481675"></ellipse>
                    <path d="M83.1489919,140.855183 L87.4506048,140.855183 L87.4506048,141.542199 L83.1489919,141.542199 L83.1489919,140.855183 Z M83.1489919,143.026492 L87.4506048,143.026492 L87.4506048,143.713508 L83.1489919,143.713508 L83.1489919,143.026492 Z" id="Shape" fill="#FFFFFF"></path>
                    <ellipse id="Oval" stroke="#DFE6E9" fill="#FFFFFF" cx="19.3530242" cy="74.1128796" rx="8.98004032" ry="8.99481675"></ellipse>
                    <polygon id="Shape" fill="#000000" points="20.7883065 71.097644 17.2233871 71.097644 17.2233871 70.4318325 21.6181452 70.4318325 21.6181452 70.9789005 18.6544355 76.9160733 17.8627016 76.9160733"></polygon>
                    <ellipse id="Oval" stroke="#DFE6E9" fill="#FFFFFF" cx="19.3530242" cy="96.5257068" rx="8.98004032" ry="8.99481675"></ellipse>
                    <path d="M20.246371,97.7979581 L16.8296371,97.7979581 L16.6433468,97.2720942 L20.3225806,92.8022513 L20.9618952,92.8022513 L20.9618952,97.1872775 L21.9695565,97.1872775 L21.9695565,97.7979581 L20.9491935,97.7979581 L20.9491935,99.3373822 L20.246371,99.3373822 L20.246371,97.7979581 Z M20.246371,97.1872775 L20.246371,93.8370157 L17.5239919,97.1872775 L20.246371,97.1872775 Z" id="Shape" fill="#000000"></path>
                    <ellipse id="Oval" stroke="#DFE6E9" fill="#FFFFFF" cx="19.3530242" cy="52.7263351" rx="8.98004032" ry="8.99481675"></ellipse>
                    <path d="M16.0506048,52.310733 C16.027696,51.426746 16.3632265,50.5711581 16.9806655,49.9391194 C17.5981046,49.3070807 18.4447968,48.9524918 19.327621,48.9562304 C20.2808858,48.9248098 21.2031974,49.2974209 21.8679435,49.9825131 L21.3683468,50.5210995 C20.8398337,49.9575432 20.1037699,49.635656 19.3318548,49.6305236 C18.642226,49.6378285 17.9852016,49.9256749 17.5117066,50.4279415 C17.0382116,50.9302082 16.7889463,51.6037218 16.8211694,52.2937696 C16.784186,52.986677 17.0313233,53.6646572 17.505341,54.170681 C17.9793586,54.6767048 18.6391342,54.9668731 19.3318548,54.9739791 C20.1301555,54.972698 20.8903867,54.6320349 21.4233871,54.0367539 L21.9060484,54.5117277 C21.248987,55.2536925 20.3006911,55.6705136 19.3106855,55.6525131 C18.4304974,55.6598733 17.5853257,55.3076254 16.970149,54.677032 C16.3549723,54.0464386 16.0229233,53.191964 16.0506048,52.310733 Z" id="Shape" fill="#000000"></path>
                    <ellipse id="Oval" stroke="#DFE6E9" fill="#FFFFFF" cx="19.3530242" cy="118.942775" rx="8.98004032" ry="8.99481675"></ellipse>
                    <polygon id="Shape" fill="#000000" points="19.3530242 115.978429 18.1294355 116.355864 17.9558468 115.762147 19.5393145 115.215079 20.0727823 115.215079 20.0727823 121.75445 19.3530242 121.75445"></polygon>
                    <rect id="Rectangle-path" stroke="#DFE6E9" fill="#FFFFFF" x="10.3729839" y="132.712775" width="41.7247984" height="17.9896335" rx="8.99481675"></rect>
                    <path d="M16.0887097,141.805131 C16.0887097,139.985812 17.1725806,138.446387 18.8364919,138.446387 C20.5004032,138.446387 21.5927419,139.947644 21.5927419,141.771204 C21.5927419,143.586283 20.5215726,145.125707 18.8534274,145.125707 C17.1852823,145.125707 16.0887097,143.62445 16.0887097,141.805131 Z M20.8010081,141.805131 C20.8010081,140.38445 20.0219758,139.11644 18.8195565,139.11644 C17.6171371,139.11644 16.8465726,140.359005 16.8465726,141.788168 C16.8465726,143.204607 17.6256048,144.476859 18.8364919,144.476859 C20.047379,144.476859 20.8137097,143.225812 20.8137097,141.805131 L20.8010081,141.805131 Z" id="Shape" fill="#000000"></path>
                    <ellipse id="Oval" stroke="#DFE6E9" fill="#FFFFFF" cx="41.3352823" cy="74.1128796" rx="8.98004032" ry="8.99481675"></ellipse>
                    <path d="M38.9008065,75.1773298 C38.9008065,74.4054974 39.4554435,73.8584293 40.2302419,73.5827749 C39.5909661,73.3610596 39.1513819,72.7711819 39.1209677,72.0942408 C39.1209677,71.0934031 40.1497984,70.3979058 41.3352823,70.3979058 C42.5207661,70.3979058 43.5453629,71.1103665 43.5453629,72.0942408 C43.5166467,72.7727577 43.076753,73.3647324 42.4360887,73.5870157 C43.2024194,73.8753927 43.7697581,74.4012565 43.7697581,75.173089 C43.7697581,76.2757068 42.7155242,77.0178534 41.3352823,77.0178534 C39.9550403,77.0178534 38.9008065,76.2629843 38.9008065,75.1773298 Z M43.0288306,75.1773298 C43.0288306,74.4563874 42.2794355,73.9474869 41.3352823,73.9474869 C40.391129,73.9474869 39.6417339,74.4563874 39.6417339,75.1773298 C39.6417339,75.8346597 40.2683468,76.3902094 41.3352823,76.3902094 C42.4022177,76.3902094 43.0288306,75.8176963 43.0288306,75.1603665 L43.0288306,75.1773298 Z M42.8171371,72.1366492 L42.8171371,72.0942408 C42.8171371,71.4538743 42.1778226,70.9746597 41.3352823,70.9746597 C40.4927419,70.9746597 39.8534274,71.4453927 39.8534274,72.0942408 L39.8534274,72.115445 C39.8534274,72.8194241 40.5096774,73.2986387 41.3352823,73.2986387 C42.1608871,73.2986387 42.8171371,72.8236649 42.8171371,72.1196859 L42.8171371,72.1366492 Z" id="Shape" fill="#000000"></path>
                    <ellipse id="Oval" stroke="#DFE6E9" fill="#FFFFFF" cx="41.3352823" cy="96.5257068" rx="8.98004032" ry="8.99481675"></ellipse>
                    <path d="M38.9939516,98.4213613 L39.472379,97.8912565 C39.9471361,98.4169484 40.6078652,98.7364459 41.3141129,98.7818325 C41.7160334,98.8149094 42.1135171,98.6785985 42.4108595,98.4057203 C42.7082019,98.1328421 42.878462,97.7481209 42.8806452,97.3441885 C42.8806452,96.5341885 42.2116935,95.9786387 41.2675403,95.9786387 C40.7901519,95.984883 40.3222952,96.1133538 39.9084677,96.3518325 L39.4173387,96.025288 L39.603629,92.8658639 L43.3336694,92.8658639 L43.3336694,93.5401571 L40.2429435,93.5401571 L40.1032258,95.6181675 C40.5000287,95.428898 40.9338902,95.3303942 41.3733871,95.3297906 C42.6435484,95.3297906 43.6131048,96.0804188 43.6131048,97.3145026 C43.6131048,98.5867539 42.6477823,99.4349215 41.2971774,99.4349215 C40.4261014,99.4142193 39.5983877,99.0499746 38.9939516,98.4213613 Z" id="Shape" fill="#000000"></path>
                    <ellipse id="Oval" stroke="#DFE6E9" fill="#FFFFFF" cx="41.3352823" cy="52.7263351" rx="8.98004032" ry="8.99481675"></ellipse>
                    <ellipse id="Oval" stroke="#DFE6E9" fill="#FFFFFF" cx="41.3352823" cy="118.942775" rx="8.98004032" ry="8.99481675"></ellipse>
                    <path d="M39.0066532,121.186178 L41.3564516,119.112408 C42.3471774,118.221832 42.7070565,117.721414 42.7070565,117.072565 C42.7087353,116.731304 42.5697374,116.404476 42.3228867,116.169261 C42.076036,115.934046 41.743217,115.811296 41.4030242,115.83 C40.6620968,115.83 40.1794355,116.220157 39.6629032,116.941099 L39.1252016,116.550942 C39.7094758,115.681571 40.3191532,115.168429 41.4580645,115.168429 C42.5969758,115.168429 43.4691532,115.948743 43.4691532,117.004712 L43.4691532,117.04712 C43.4691532,117.992827 42.9695565,118.573822 41.8306452,119.566178 L40.0989919,121.105602 L43.5326613,121.105602 L43.5326613,121.775654 L39.0066532,121.775654 L39.0066532,121.186178 Z" id="Shape" fill="#000000"></path>
                    <polygon id="Shape" fill="#000000" points="43.1854839 50.1012565 43.8417339 50.1012565 39.0701613 56.5939791 38.4012097 56.5939791"></polygon>
                    <polygon id="Shape" fill="#000000" points="38.5493952 51.3862304 36.9108871 51.3862304 36.9108871 50.8179581 38.5493952 50.8179581 38.5493952 49.1937173 39.146371 49.1937173 39.146371 50.8306806 40.784879 50.8306806 40.784879 51.3989529 39.146371 51.3989529 39.146371 53.0104712 38.5493952 53.0104712"></polygon>
                    <polygon id="Shape" fill="#000000" points="41.8433468 55.1520942 41.8433468 54.5541361 45.7977823 54.5541361 45.7977823 55.1520942"></polygon>
                    <rect id="Rectangle-path" stroke="#DFE6E9" fill="#FFFFFF" x="10.3729839" y="11.1873298" width="83.9110887" height="23.1889005" rx="6.43"></rect>
                </g>
            </g>
        </g>
    </g>
</svg>